<svg width="62" height="60" viewBox="0 0 62 60" fill="none" xmlns="http://www.w3.org/2000/svg">
<g clip-path="url(#clip0_158_128)">
<path d="M14.6083 7.04318H20.4036C20.939 7.04318 21.3117 6.90458 21.6941 6.52995L25.8223 2.56229C29.3425 -0.864838 32.6575 -0.843338 36.1777 2.56229L40.3059 6.52995C40.6883 6.90458 41.0609 7.04318 41.5965 7.04318L47.3917 7.04318C52.3883 7.04318 54.7374 9.30367 54.7374 14.1545L54.7374 19.761C54.7374 20.2743 54.8904 20.6229 55.2727 21.0096L59.3517 24.9988C62.8939 28.4042 62.8717 31.5946 59.3517 35.0218L55.2727 39.0108C54.8855 39.3855 54.7374 39.7461 54.7374 40.2378L54.7374 45.8659C54.7374 50.6785 52.4008 52.9772 47.3917 52.9772L41.5965 52.9772C41.0609 52.9772 40.6834 53.1037 40.3059 53.469L36.1777 57.4366C32.6526 60.8731 29.3523 60.8374 25.8223 57.4319L21.6941 53.469C21.3166 53.1037 20.939 52.9772 20.4036 52.9772L14.6083 52.9772C9.61163 52.9772 7.2627 50.731 7.2627 45.8659L7.2627 40.2378C7.2627 39.7461 7.13198 39.3808 6.74954 39.0108L2.64843 35.0218C-0.893921 31.5946 -0.871681 28.4042 2.64843 24.9988L6.74954 21.0096C7.13198 20.6229 7.2627 20.2743 7.2627 19.761L7.2627 14.1545C7.2627 9.32047 9.61651 7.04318 14.6083 7.04318ZM14.9696 11.8107C12.58 11.8107 12.1954 12.1826 12.1856 14.4993L12.1856 21.3549C12.1856 22.1326 11.9562 22.7173 11.3692 23.2851L6.37466 28.0909C4.68052 29.7562 4.68052 30.2332 6.37466 31.8985L11.3692 36.7043C11.9562 37.2722 12.1856 37.8567 12.1954 38.656L12.1954 45.5165C12.1954 47.8545 12.548 48.2004 14.9696 48.2004L22.0608 48.2051C22.8822 48.2051 23.4962 48.415 24.0735 48.9949L29.0458 53.8269C30.7621 55.4659 31.2553 55.4706 32.9542 53.8269L37.9488 48.9949C38.5038 48.415 39.1401 48.2051 39.9393 48.2051L47.0304 48.2004C49.4199 48.2004 49.8046 47.8283 49.8046 45.5165L49.8046 38.656C49.8095 37.8567 50.0661 37.2722 50.6531 36.7043L55.6428 31.8985C57.3417 30.2332 57.3417 29.7562 55.6428 28.0909L50.6531 23.2851C50.0661 22.7173 49.8095 22.1326 49.8095 21.3549L49.8046 14.4993C49.8046 12.1826 49.4199 11.8107 47.0304 11.8107L39.9393 11.8058C39.1401 11.8058 38.5135 11.5886 37.9488 10.9945L32.9542 6.1625C31.2602 4.52362 30.7621 4.52362 29.0458 6.1625L24.0735 10.9945C23.4865 11.5886 22.8822 11.8058 22.0608 11.8058L14.9696 11.8107Z" fill="#4972C7"/>
<path d="M28.3027 42C29.2438 42 30.0631 41.5202 30.6206 40.6668L42.3516 22.0017C42.6826 21.4465 43 20.8259 43 20.1977C43 18.8891 41.8376 18 40.6207 18C39.8349 18 39.1226 18.4387 38.5675 19.3401L28.212 36.2666L23.3333 29.9423C22.6896 29.0981 22.0749 28.8194 21.3054 28.8194C20.0192 28.8194 19 29.8591 19 31.1896C19 31.8124 19.2408 32.4186 19.6788 32.9928L25.88 40.6811C26.578 41.5954 27.3477 42 28.3027 42Z" fill="#4972C7"/>
</g>
<defs>
<clipPath id="clip0_158_128">
<rect width="62" height="60" fill="white" transform="matrix(1 0 0 -1 0 60)"/>
</clipPath>
</defs>
</svg>
