<svg width="69" height="60" viewBox="0 0 69 60" fill="none" xmlns="http://www.w3.org/2000/svg">
<path d="M60.1468 46.8373H55.4502L55.4502 16.8032C55.4502 15.2425 54.7047 14.4956 53.2136 14.4956L5.99967 14.4956C6.13734 11.344 7.98452 9.64978 11.1329 9.64978L54.3998 9.64978C57.9653 9.64978 60.1468 11.6933 60.1468 15.5344L60.1468 46.8373ZM65.224 50.9998L22.6222 50.9998C23.3365 49.8468 23.7504 48.4646 23.7896 46.869C23.7896 46.1353 23.8093 45.4308 23.8093 44.6974L65.224 44.6974C66.8828 44.6974 68.2607 46.1144 68.2607 47.8508C68.2607 49.587 66.8828 50.9998 65.224 50.9998Z" fill="#4972C7"/>
<path d="M16.2693 52.0167H5.00608C2.05939 52.0167 0.331474 50.2769 0.331474 47.3246L0.331474 22.7123C0.331474 19.7601 2.07903 18 5.00608 18L16.2693 18C19.242 18 21 19.7601 21 22.7078L21 47.3291C21 50.2769 19.242 52.0167 16.2693 52.0167ZM16.0231 48.3179C16.9957 48.3179 17.4887 47.7689 17.4887 46.7449L17.4887 23.2875C17.4887 22.2433 16.9957 21.6986 16.0231 21.6986H13.9063C13.8257 21.6986 13.7582 21.7684 13.7582 21.8515V22.0964C13.7582 22.9665 13.1938 23.5443 12.3635 23.5443H8.9637C8.15303 23.5443 7.56901 22.9665 7.56901 22.0964V21.8515C7.56901 21.7684 7.52114 21.6986 7.42091 21.6986H5.31946C4.35537 21.6986 3.83866 22.2522 3.83866 23.2964L3.83866 46.7404C3.83866 47.7601 4.35537 48.3179 5.31946 48.3179H16.0231ZM13.9327 47.0032H7.4295C6.93712 47.0032 6.56892 46.6524 6.56892 46.1197C6.56892 45.6275 6.93712 45.2476 7.4295 45.2476H13.9327C14.4207 45.2476 14.754 45.6275 14.754 46.1197C14.754 46.6727 14.4447 47.0032 13.9327 47.0032Z" fill="#4972C7"/>
</svg>
