<svg width="62" height="60" viewBox="0 0 62 60" fill="none" xmlns="http://www.w3.org/2000/svg">
<g clip-path="url(#clip0_158_115)">
<path d="M1.17054 6.70275C6.5737 -0.523567 17.5855 -2.28646 24.3397 3.28572C30.0591 7.96583 31.0447 15.0926 26.5289 20.9666C22.3385 26.5016 16.3167 27.6697 11.6725 23.8031C7.46147 20.3464 8.89286 15.6494 6.65528 13.844C4.66285 12.2244 2.59107 13.2328 0.998227 11.88C-0.318989 10.7037 -0.403264 8.74987 1.17054 6.70275ZM7.41035 7.68595C7.08144 8.04679 7.09395 8.41803 7.33858 8.66262C7.7338 9.03072 9.08473 9.20014 10.141 10.2957C12.8608 13.1117 11.8219 16.9318 14.8418 19.4928C17.2327 21.5377 20.6071 20.8801 22.9474 17.8863C25.5769 14.4881 24.7848 10.2 21.2719 7.27483C17.2751 3.87883 11.113 3.80512 7.41035 7.68595ZM28.0869 13.8005C31.2036 14.1099 33.8777 15.7055 36.836 18.7829C45.7768 28.0656 59.2573 48.6742 60.3869 50.3175C64.1053 55.7124 57.7447 62.3038 52.5303 58.4887C50.995 57.345 31.2537 43.3726 22.3353 34.0051C19.4067 30.9303 17.8237 28.1671 17.4997 24.9763L22.5842 23.4983C22.5016 25.6728 23.4687 27.6738 25.8569 30.1441C34.1262 38.6727 52.016 51.6028 54.3543 53.3605C55.1756 53.987 56.0617 53.0796 55.4528 52.1693C54.0465 49.7828 41.3864 31.0548 33.2139 22.5393C30.9164 20.1504 29.1893 19.231 27.2061 19.0606L28.0869 13.8005ZM32.9031 21.4602L36.759 22.4305C36.5301 27.9575 31.2367 33.5785 26.0239 33.8736L24.7621 29.8403C28.3441 29.7929 32.7414 25.2566 32.9031 21.4602Z" fill="#4972C7"/>
</g>
<defs>
<clipPath id="clip0_158_115">
<rect width="62" height="60" fill="white" transform="matrix(1 0 0 -1 0 60)"/>
</clipPath>
</defs>
</svg>
