<svg width="30" height="18" viewBox="0 0 30 18" fill="none" xmlns="http://www.w3.org/2000/svg">
<g clip-path="url(#clip0_348_1122)">
<path fill-rule="evenodd" clip-rule="evenodd" d="M1.15687 14.9453C0.752439 16.014 0.366814 17.0323 0 18H3.96441C4.31242 17.0154 4.66512 15.9972 5.02253 14.9453C5.13465 14.6212 5.24546 14.3014 5.35494 13.986H13.2247C13.3339 14.3041 13.445 14.6281 13.558 14.9579C13.9154 16.0014 14.2634 17.0154 14.602 18H20.5727C22.2975 18 23.7614 17.7686 24.9645 17.3058C26.1677 16.8429 27.1352 16.1992 27.8672 15.3745C28.6076 14.5498 29.146 13.5905 29.4826 12.4965C29.8275 11.3941 30 10.2076 30 8.93689C30 7.52314 29.8065 6.26508 29.4195 5.16269C29.0409 4.06031 28.4814 3.12623 27.741 2.36045C27.0006 1.58626 26.0919 1.0014 25.015 0.605892C23.9465 0.201964 22.7224 0 21.3425 0H14.7169V7.43336L14.08 5.73072C13.6662 4.63675 13.29 3.64376 12.9514 2.75175C12.6128 1.85975 12.2695 0.942497 11.9215 0H6.81427C6.47568 0.908836 6.13238 1.81346 5.78437 2.71389C5.44578 3.60589 5.06485 4.6115 4.64161 5.73072L2.29964 11.9032C1.94223 12.8626 1.56131 13.8766 1.15687 14.9453ZM17.7733 15.5764C17.7432 15.4962 17.713 15.4157 17.6827 15.3349V2.42356H20.8251C21.8852 2.42356 22.7981 2.57504 23.5637 2.87798C24.3293 3.18093 24.9603 3.61851 25.4567 4.19074C25.9531 4.75456 26.3191 5.43619 26.5547 6.23562C26.7903 7.02665 26.9081 7.91024 26.9081 8.8864C26.9081 10.1655 26.7061 11.31 26.3023 12.3198C25.8984 13.3296 25.2338 14.1248 24.3083 14.7055C23.3828 15.2861 22.1418 15.5764 20.5853 15.5764H17.7733ZM12.3051 11.31L9.48073 3.04208H9.17035L6.28751 11.31H12.3051Z" fill="#080D16"/>
</g>
<defs>
<clipPath id="clip0_348_1122">
<rect width="30" height="18" fill="white"/>
</clipPath>
</defs>
</svg>
