<svg width="32" height="32" viewBox="0 0 32 32" fill="none" xmlns="http://www.w3.org/2000/svg">
<rect width="32" height="32" fill="white"/>
<path fill-rule="evenodd" clip-rule="evenodd" d="M2.15687 21.9453C1.75244 23.014 1.36681 24.0323 1 25H4.96441C5.31242 24.0154 5.66512 22.9972 6.02253 21.9453C6.13465 21.6212 6.24546 21.3014 6.35494 20.986H14.2247C14.3339 21.3041 14.445 21.6281 14.558 21.9579C14.9154 23.0014 15.2634 24.0154 15.602 25H21.5727C23.2975 25 24.7614 24.7686 25.9645 24.3058C27.1677 23.8429 28.1352 23.1992 28.8672 22.3745C29.6076 21.5498 30.146 20.5905 30.4826 19.4965C30.8275 18.3941 31 17.2076 31 15.9369C31 14.5231 30.8065 13.2651 30.4195 12.1627C30.0409 11.0603 29.4814 10.1262 28.741 9.36045C28.0006 8.58626 27.0919 8.0014 26.015 7.60589C24.9465 7.20196 23.7224 7 22.3425 7H15.7169V14.4334L15.08 12.7307C14.6662 11.6367 14.29 10.6438 13.9514 9.75175C13.6128 8.85975 13.2695 7.9425 12.9215 7H7.81427C7.47568 7.90884 7.13238 8.81346 6.78437 9.71389C6.44578 10.6059 6.06485 11.6115 5.64161 12.7307L3.29964 18.9032C2.94223 19.8626 2.56131 20.8766 2.15687 21.9453ZM18.7733 22.5764C18.7432 22.4962 18.713 22.4157 18.6827 22.3349V9.42356H21.8251C22.8852 9.42356 23.7981 9.57504 24.5637 9.87798C25.3293 10.1809 25.9603 10.6185 26.4567 11.1907C26.9531 11.7546 27.3191 12.4362 27.5547 13.2356C27.7903 14.0266 27.9081 14.9102 27.9081 15.8864C27.9081 17.1655 27.7061 18.31 27.3023 19.3198C26.8984 20.3296 26.2338 21.1248 25.3083 21.7055C24.3828 22.2861 23.1418 22.5764 21.5853 22.5764H18.7733ZM13.3051 18.31L10.4807 10.0421H10.1703L7.28751 18.31H13.3051Z" fill="black"/>
</svg>
