<svg width="284" height="211" viewBox="0 0 284 211" fill="none" xmlns="http://www.w3.org/2000/svg">
<g clip-path="url(#clip0_183_565)">
<path d="M29.1652 163.281H254.739C273.02 163.281 284 155.471 284 142.467V42.1982C284 29.2098 273.02 21.468 254.739 21.468H168.654V37.4143H253.473C258.432 37.4143 261.561 39.5716 261.561 43.182V141.567C261.561 145.094 258.432 147.32 253.473 147.32H30.5271C25.5684 147.32 22.4396 145.094 22.4396 141.567V43.182C22.4396 39.5716 25.5684 37.4143 30.5271 37.4143H114.84V21.468H29.1652C10.9799 21.468 0 29.2098 0 42.1982V142.467C0 155.471 10.9799 163.281 29.1652 163.281ZM103.846 182.31H180.154V161.585H103.846V182.31ZM103.271 193.366H180.73C186.552 193.366 191.27 189.935 191.27 185.816C191.27 181.696 186.552 178.28 180.73 178.28H103.271C97.4485 178.28 92.6348 181.696 92.6348 185.816C92.6348 189.935 97.4485 193.366 103.271 193.366Z" fill="#F7F9FD"/>
<path d="M131.871 4.74646V69.8486L133.019 85.9263L112.688 69.4821L106.113 64.9715C104.263 63.6715 101.757 62.8559 98.8884 62.8559C93.4499 62.8559 89.584 65.6889 89.584 69.5042C89.584 71.5211 90.5294 73.2143 92.4741 74.5147L133.682 103.992C136.197 105.782 139.01 106.778 141.749 106.778C144.412 106.778 147.299 105.782 149.739 103.992L191.044 74.5147C192.892 73.2143 193.912 71.5211 193.912 69.5042C193.912 65.6889 189.972 62.8559 184.512 62.8559C181.739 62.8559 179.158 63.6565 177.309 64.9715L170.808 69.4821L150.381 85.9263L151.551 69.8486V4.74646C151.551 0.506874 146.983 -2.23462 141.749 -2.23462C136.535 -2.23462 131.871 0.506874 131.871 4.74646Z" fill="#F7F9FD"/>
</g>
<defs>
<clipPath id="clip0_183_565">
<rect width="284" height="210" fill="white" transform="translate(0 0.326904)"/>
</clipPath>
</defs>
</svg>
