<svg width="250" height="241" viewBox="0 0 250 241" fill="none" xmlns="http://www.w3.org/2000/svg">
<path d="M221.896 4.58384C252.196 25.7425 259.588 68.8647 236.224 95.314C216.6 117.711 186.717 121.571 162.087 103.887C138.879 87.4774 133.981 63.8961 150.194 45.7092C164.688 29.219 184.382 34.8243 191.953 26.062C198.743 18.2597 194.515 10.1466 200.188 3.90904C205.12 -1.24916 213.312 -1.57918 221.896 4.58384ZM217.773 29.0188C216.26 27.7308 214.704 27.7798 213.678 28.7378C212.135 30.2855 211.424 35.5757 206.83 39.7122C195.023 50.3628 179.005 46.2946 168.267 58.1204C159.692 67.4831 162.45 80.697 175.003 89.8618C189.252 100.159 207.232 97.0571 219.497 83.3006C233.737 67.6492 234.046 43.5185 217.773 29.0188ZM192.135 109.988C190.838 122.193 184.147 132.665 171.243 144.249C132.321 179.261 45.9089 232.051 39.0185 236.474C16.3973 251.035 -11.2404 226.128 4.75649 205.708C9.55204 199.696 68.1385 122.389 107.416 87.4647C120.309 75.9965 131.896 69.7973 145.275 68.5285L151.472 88.4396C142.354 88.1161 133.964 91.9033 123.606 101.255C87.8452 133.638 33.629 203.694 26.2589 212.851C23.6319 216.067 27.437 219.537 31.2539 217.153C41.2604 211.645 119.787 162.069 155.493 130.065C165.509 121.068 169.365 114.305 170.079 106.539L192.135 109.988ZM160.018 128.848L155.949 143.948C132.774 143.051 109.205 122.323 107.968 101.909L124.88 96.968C125.078 110.995 144.099 128.215 160.018 128.848Z" fill="#F7F9FD"/>
</svg>
