<svg width="250" height="250" viewBox="0 0 250 250" fill="none" xmlns="http://www.w3.org/2000/svg">
<path d="M236.475 236.891C218.302 254.641 191.777 254.865 173.401 234.499C154.082 212.909 132.053 172.461 101.65 142.736C79.2369 120.737 53.6763 141.337 21.7524 113.972C6.24565 101.937 -2.83017 82.2252 0.795486 66.4424L42.612 77.611C48.807 79.2165 53.0621 75.4503 54.9641 69.0735L58.044 58.5406C59.9451 52.1638 57.6595 46.8292 51.551 45.2422L9.66869 34.1026C10.9817 29.8598 14.5974 23.9783 19.5127 19.0689C44.5942 -6.01699 86.6332 -5.90141 111.098 16.7618C147.505 50.5852 120.615 85.4673 142.948 107.266C170.769 134.382 212.176 156.333 234.153 175.222C255.051 193.141 254.715 219.056 236.475 236.891ZM224.663 225.295C235.833 214.168 235.708 197.795 222.658 186.546C200.717 167.758 156.442 143.621 131.051 118.814C103.12 91.5057 132.482 58.3549 99.1131 28.3285C80.875 11.9224 48.4675 12.1824 29.4206 31.0257L24.5702 22.5689L55.3694 30.4438C71.4038 34.6166 78.4435 46.7673 73.6291 63.027L70.6546 73.0915C65.4376 90.9756 54.6471 96.3264 39.7843 92.4258L7.80722 83.9793L16.666 79.5074C18.8823 87.2152 22.9492 94.7661 29.5602 101.192C55.5342 125.988 85.9532 104.348 113.529 131.122C141.291 158.246 165.748 201.742 184.963 223.316C196.68 236.47 213.531 236.488 224.663 225.295ZM98.4251 103.326L75.8661 97.4156C73.9668 96.8996 72.7871 94.8551 73.3148 92.8757C73.7552 91.0372 75.7607 89.8177 77.8527 90.4182L100.325 96.3097C102.311 96.8256 103.385 98.768 102.982 100.662C102.666 102.895 100.412 103.842 98.4251 103.326ZM101.15 92.1616L78.8884 86.3547C76.8837 85.8387 75.6175 83.8969 76.2506 81.7299C76.8162 79.7695 78.8884 78.7562 80.7696 79.1689L103.242 85.1453C105.247 85.5767 106.408 87.6217 105.88 89.4788C105.228 91.6457 103.348 92.7621 101.15 92.1616ZM103.943 80.9974L81.5945 75.1902C79.5899 74.6743 78.4093 72.7324 79.0622 70.5655C79.5224 68.6051 81.5945 67.5072 83.4749 67.9859L106.053 73.8777C108.058 74.3936 109.114 76.4573 108.605 78.3146C108.096 80.4629 106.159 81.5979 103.943 80.9974ZM56.9697 122.112L45.9135 119.491L59.5993 70.6584L70.6546 73.0915L56.9697 122.112ZM205.298 218.738C198.368 218.738 192.773 213.249 192.773 206.493C192.773 199.755 198.368 194.181 205.298 194.181C212.208 194.181 217.89 199.755 217.89 206.493C217.89 213.249 212.208 218.738 205.298 218.738Z" fill="#F7F9FD"/>
</svg>
