<svg width="202" height="184" viewBox="0 0 202 184" fill="none" xmlns="http://www.w3.org/2000/svg">
<g clip-path="url(#clip0_183_568)">
<path d="M12.625 161H155.708C161.289 161 166.641 158.981 170.587 155.386C174.533 151.792 176.75 146.917 176.75 141.833V11.5C176.75 8.45001 178.08 5.52494 180.448 3.36827C182.815 1.2116 186.027 0 189.375 0C192.723 0 195.935 1.2116 198.302 3.36827C200.67 5.52494 202 8.45001 202 11.5V141.833C201.987 153.013 197.105 163.731 188.427 171.636C179.748 179.541 167.982 183.988 155.708 184H12.625C9.27664 184 6.06543 182.788 3.69778 180.632C1.33014 178.475 0 175.55 0 172.5C0 169.45 1.33014 166.525 3.69778 164.368C6.06543 162.212 9.27664 161 12.625 161Z" fill="#F7F9FD"/>
<path d="M12.6261 30.4829H38.5998C40.2642 30.4832 41.8912 30.9331 43.2749 31.7755C44.6587 32.6179 45.7372 33.8152 46.3741 35.2159C47.011 36.6166 47.1777 38.1578 46.8531 39.6448C46.5285 41.1318 45.7271 42.4977 44.5504 43.5699L38.381 49.1819L68.5715 76.6669C68.9625 77.0239 69.4268 77.3071 69.9381 77.5004C70.4494 77.6936 70.9975 77.7931 71.551 77.7931C72.1046 77.7931 72.6527 77.6936 73.164 77.5004C73.6752 77.3071 74.1396 77.0239 74.5305 76.6669L75.9614 75.3636C81.5721 70.4812 89.0331 67.7567 96.7926 67.7567C104.552 67.7567 112.013 70.4812 117.624 75.3636L152.132 106.797C153.338 107.858 154.3 109.127 154.961 110.53C155.623 111.933 155.971 113.442 155.986 114.969C156 116.496 155.681 118.01 155.046 119.423C154.411 120.837 153.474 122.121 152.289 123.2C151.103 124.28 149.694 125.134 148.142 125.712C146.59 126.291 144.928 126.582 143.252 126.568C141.575 126.555 139.919 126.238 138.378 125.635C136.838 125.032 135.445 124.156 134.28 123.058L99.7721 91.6246C99.3812 91.2676 98.9168 90.9844 98.4055 90.7911C97.8942 90.5979 97.3461 90.4984 96.7926 90.4984C96.239 90.4984 95.6909 90.5979 95.1797 90.7911C94.6684 90.9844 94.204 91.2676 93.8131 91.6246L92.3823 92.9279C86.7695 97.8068 79.3093 100.529 71.551 100.529C63.7927 100.529 56.3326 97.8068 50.7198 92.9279L20.5377 65.4429L14.3767 71.0626C13.2001 72.1371 11.6998 72.8693 10.0659 73.1665C8.43207 73.4637 6.73811 73.3125 5.19867 72.7321C3.65921 72.1516 2.34352 71.168 1.41824 69.9059C0.492981 68.6438 -0.000244141 67.1599 0.00106812 65.6423V41.9829C0.00106812 38.9329 1.33121 36.0079 3.69885 33.8512C6.0665 31.6945 9.27769 30.4829 12.6261 30.4829Z" fill="#F7F9FD"/>
</g>
<defs>
<clipPath id="clip0_183_568">
<rect width="202" height="184" fill="white" transform="matrix(-1 0 0 1 202 0)"/>
</clipPath>
</defs>
</svg>
