<svg width="250" height="247" viewBox="0 0 250 247" fill="none" xmlns="http://www.w3.org/2000/svg">
<path d="M0 100.924C0 156.218 46.2204 201.131 103.075 201.131C124.219 201.131 143.623 194.813 159.801 184.15L217.974 240.806C221.616 244.347 226.44 246.033 231.518 246.033C242.294 246.033 250 238.115 250 227.762C250 222.892 248.161 218.348 244.682 214.965L186.955 158.521C199.041 142.357 206.15 122.486 206.15 100.924C206.15 45.6512 159.929 0.739014 103.075 0.739014C46.2204 0.739014 0 45.6512 0 100.924ZM26.8492 100.924C26.8492 60.0367 61.0177 26.8411 103.075 26.8411C145.132 26.8411 179.277 60.0367 179.277 100.924C179.277 141.833 145.132 175.028 103.075 175.028C61.0177 175.028 26.8492 141.833 26.8492 100.924ZM103.156 151.208C105.387 151.208 107.124 149.519 107.631 147.372C113.506 115.319 116.74 109.607 150.681 105.195C153.142 104.905 154.799 103.171 154.799 100.901C154.799 98.6758 153.12 96.9868 150.681 96.4944C116.98 92.0824 112.628 86.1908 107.631 54.598C107.228 52.2493 105.364 50.6613 103.156 50.6613C100.844 50.6613 99.1292 52.1705 98.6228 54.5193C92.6663 86.5847 89.5361 92.0159 55.55 96.4944C53.1341 96.9868 51.455 98.6758 51.455 100.901C51.455 103.171 53.1113 104.804 55.5272 105.195C89.4678 108.841 93.7072 115.385 98.6228 147.271C99.0254 149.497 100.763 151.208 103.156 151.208Z" fill="#F7F9FD"/>
</svg>
