<svg width="250" height="201" viewBox="0 0 250 201" fill="none" xmlns="http://www.w3.org/2000/svg">
<path d="M185.07 144.999H171.856C165.939 144.999 161.19 141.342 159.942 135.606L157.821 125.8C157.599 124.786 157.302 124.307 157.048 124.117L147.089 130.172C142.272 133.049 136.308 132.45 132.279 128.352L123.07 118.93C118.827 114.633 118.221 108.68 121.273 103.802L127.779 93.4024C127.705 94.4195 127.557 93.009 127.483 93.6475L116.164 90.8701C110.626 89.5236 106.926 84.7189 106.926 78.7254V66.3011C106.926 60.3825 110.535 55.5781 116.164 54.1565L127.483 51.3958C127.557 51.4744 127.705 51.2494 127.779 51.6409L121.273 41.2417C118.221 36.3623 118.827 30.4694 123.07 26.1132L132.279 16.7495C136.308 12.6513 142.272 11.9945 147.089 14.9292L157.795 21.3545C156.726 21.2795 158.167 21.2045 157.537 21.1294L159.942 9.42032C161.149 3.79263 165.923 0.118896 171.856 0.118896H185.07C190.986 0.118896 195.687 3.79263 196.983 9.42032L199.479 21.1294C199.417 21.2045 199.639 21.2795 199.221 21.3545L209.821 14.9292C214.637 11.9781 220.618 12.6513 224.646 16.7495L233.856 26.1132C238.065 30.4529 238.614 36.4373 235.653 41.2417L229.146 51.6409C229.221 50.6072 229.369 52.0342 229.443 51.3958L240.836 54.1565C246.39 55.5781 250 60.3825 250 66.3011V78.7254C250 84.7189 246.39 89.5236 240.836 90.8701L229.443 93.6475C229.369 93.5687 229.221 93.7935 229.146 93.4024L235.653 103.802C238.688 108.68 238.098 114.633 233.856 118.93L224.646 128.352C220.601 132.45 214.76 133.049 209.927 130.172L199.862 124.117C199.639 124.126 199.327 124.276 199.105 125.8L196.983 135.606C195.735 141.342 190.986 144.999 185.07 144.999ZM183.29 131.007C184.128 131.007 184.156 130.911 184.411 130.047L188.375 113.359C192.936 112.369 197.055 110.242 200.313 108.421L214.675 117.243C215.496 117.743 215.625 117.733 216.208 117.159L222.989 110.364C223.572 109.79 223.565 109.751 223.088 108.919L214.471 94.5257C215.505 91.6991 218.097 87.3847 219.115 82.3646L235.348 78.4405C236.186 78.2734 236.296 78.1694 236.296 77.304V67.7227C236.296 66.8737 236.186 66.828 235.348 66.6615L219.115 62.7371C218.097 57.6418 215.505 53.4192 214.471 50.5011L223.088 36.1245C223.565 35.3506 223.572 35.3286 222.989 34.6626L216.208 27.9591C215.625 27.3682 215.496 27.3755 214.675 27.7835L200.313 36.6056C197.055 34.7852 192.936 32.6574 188.375 31.6677L184.411 15.0553C184.156 14.2064 184.128 14.0948 183.29 14.0948H173.636C172.798 14.0948 172.752 14.2064 172.514 15.0553L168.551 31.6677C163.989 32.6574 159.87 34.7852 156.596 36.6056L142.251 27.7835C141.503 27.3755 141.301 27.3682 140.717 27.9591L133.937 34.6626C133.353 35.3286 133.345 35.3506 133.838 36.1245L142.455 50.5011C141.42 53.4192 138.813 57.6418 137.794 62.7371L121.578 66.6615C120.74 66.828 120.629 66.8737 120.629 67.7227V77.304C120.629 78.1694 120.74 78.2734 121.578 78.4405L137.794 82.3646C138.813 87.3847 141.42 91.6991 142.455 94.5257L133.838 108.919C133.345 109.751 133.353 109.79 133.937 110.364L140.717 117.159C141.301 117.733 141.503 117.743 142.251 117.243L156.596 108.421C159.87 110.242 163.989 112.369 168.551 113.359L172.514 130.047C172.752 130.911 172.798 131.007 173.636 131.007H183.29ZM178.463 100.166C163.646 100.166 151.432 87.6993 151.432 72.5215C151.432 57.5101 163.646 45.135 178.463 45.135C193.518 45.135 205.658 57.4772 205.658 72.5215C205.658 87.6244 193.518 100.166 178.463 100.166ZM178.463 85.804C185.617 85.804 191.573 79.9205 191.573 72.5215C191.573 65.3644 185.585 59.4054 178.463 59.4054C171.399 59.4054 165.607 65.3644 165.607 72.5215C165.607 79.8284 171.399 85.804 178.463 85.804ZM65.4877 201H55.0716C49.6651 201 45.087 197.767 44.2425 192.78L42.5428 183.59C42.5305 183.515 42.3078 183.44 42.7847 183.365L34.6716 188.477C30.3068 191.245 24.8842 190.663 21.1258 186.673L13.78 179.214C9.97308 175.266 9.26732 169.772 12.1636 165.366L17.2996 157.486C17.2256 158.486 17.1517 157.151 17.0029 157.773L8.09697 155.885C3.26451 154.862 0 150.374 0 144.93V134.635C0 129.282 3.26451 124.719 8.09697 123.679L17.0029 121.867C17.1517 121.928 17.2256 121.703 17.2996 122.079L12.1636 114.215C9.26732 109.809 9.97308 104.39 13.78 100.442L21.1258 92.9083C24.8842 88.9928 30.3068 88.3199 34.6716 91.1043L42.7847 96.1993C41.6745 96.1244 43.0829 96.0495 42.5428 95.9745L44.2425 86.8594C45.087 81.8135 49.6651 78.581 55.0716 78.581H65.4877C70.8942 78.581 75.4716 81.8135 76.407 86.8594L78.0905 95.9745C78.0288 96.0495 78.2507 96.1244 77.8485 96.1993L85.9617 91.1043C90.3265 88.3199 95.6751 88.9928 99.4335 92.9083L106.779 100.442C110.586 104.39 111.308 109.809 108.47 114.215L103.334 122.079C103.408 121.095 103.482 122.489 103.556 121.867L112.462 123.679C117.369 124.719 120.649 129.282 120.649 134.635V144.93C120.649 150.374 117.369 154.862 112.462 155.885L103.556 157.773C103.482 157.711 103.408 157.861 103.334 157.486L108.47 165.366C111.308 169.772 110.586 175.266 106.779 179.214L99.4335 186.673C95.6751 190.663 90.3265 191.245 85.9617 188.477L77.8485 183.365C78.8848 183.44 77.4764 183.515 78.0905 183.59L76.407 192.78C75.4716 197.767 70.8942 201 65.4877 201ZM63.0422 187.698C64.0608 187.698 64.2449 187.396 64.5 186.546L67.7414 173.16C71.5476 172.336 74.8799 171.007 78.4403 168.588L90.0445 175.93C90.6208 176.272 91.1986 176.312 91.8235 175.738L95.8215 171.52C96.5365 170.796 96.5134 170.36 96.1012 169.719L89.1746 158.351C89.7671 156.123 92.5131 151.926 93.3352 147.213L106.507 144.095C107.328 143.929 107.594 143.576 107.594 142.743V136.821C107.594 135.989 107.328 135.652 106.507 135.486L93.3352 132.368C92.5131 127.655 89.7671 123.533 89.1746 121.213L96.1012 109.862C96.5134 109.279 96.5365 108.769 95.8215 108.061L91.8235 103.902C91.1986 103.269 90.6208 103.309 90.0445 103.726L78.4403 110.993C74.8799 108.649 71.5476 107.228 67.7414 106.405L64.5 93.0184C64.2449 92.1854 64.0608 91.8834 63.0422 91.8834H57.5911C56.5725 91.8834 56.3884 92.1854 56.1495 93.0184L52.8919 106.405C49.1019 107.228 45.7534 108.649 42.1922 110.993L30.588 103.726C29.9547 103.309 29.4508 103.269 28.8098 103.902L24.7378 108.061C24.0968 108.769 24.1199 109.279 24.4573 109.862L31.4587 121.213C30.8084 123.533 28.1364 127.655 27.2981 132.368L14.1267 135.486C13.3208 135.652 13.0396 135.989 13.0396 136.821V142.743C13.0396 143.576 13.3208 143.929 14.1267 144.095L27.2981 147.213C28.1364 151.926 30.8084 156.123 31.4587 158.351L24.4573 169.719C24.1199 170.36 24.0968 170.796 24.7378 171.52L28.8098 175.738C29.4508 176.312 29.9547 176.272 30.588 175.93L42.1922 168.588C45.7534 171.007 49.1019 172.336 52.8919 173.16L56.1495 186.546C56.3884 187.396 56.5725 187.698 57.5911 187.698H63.0422ZM60.3247 161.254C48.7837 161.254 39.229 151.575 39.229 139.79C39.229 128.098 48.7837 118.493 60.3247 118.493C72.0461 118.493 81.5268 128.081 81.5268 139.79C81.5268 151.499 72.0299 161.254 60.3247 161.254ZM60.2924 148.988C65.3198 148.988 69.3124 144.834 69.3124 139.774C69.3124 134.789 65.3198 130.819 60.2924 130.819C55.5516 130.819 51.485 134.789 51.485 139.774C51.485 144.743 55.5686 148.988 60.2924 148.988Z" fill="#F7F9FD"/>
</svg>
