<svg width="334" height="73" viewBox="0 0 334 73" fill="none" xmlns="http://www.w3.org/2000/svg">
<path d="M0 35.1128C0.641814 33.2614 1.31654 31.3134 2.02418 29.2688C2.73182 27.2241 3.39832 25.2841 4.02368 23.4488L8.12141 11.6399C8.86197 9.49866 9.52847 7.57478 10.1209 5.86824C10.7298 4.1456 11.3305 2.41491 11.9229 0.676175H20.8589C21.4678 2.47931 22.0685 4.23415 22.661 5.94069C23.2534 7.64723 23.9117 9.54696 24.6358 11.6399L28.6841 23.473C29.3424 25.3727 30.0171 27.3288 30.7083 29.3412C31.3995 31.3536 32.0578 33.2775 32.6831 35.1128H25.5491C24.9567 33.2292 24.3478 31.2892 23.7224 29.2929C23.0971 27.2966 22.5046 25.4129 21.9451 23.642L16.5884 6.49612H16.0453L10.6393 23.4488C10.0469 25.3002 9.42972 27.2402 8.78791 29.2688C8.16255 31.2812 7.54543 33.2292 6.93653 35.1128H0ZM7.82519 27.4334L8.51637 22.3138H24.9567L25.5244 27.4334H7.82519Z" fill="black"/>
<path d="M44.7684 35.1128C44.1925 33.3902 43.5753 31.5549 42.917 29.6068C42.2752 27.6588 41.6746 25.8557 41.115 24.1974L37.511 13.4028C37.0996 12.1792 36.647 10.843 36.1533 9.39401C35.6761 7.92897 35.1906 6.45587 34.6969 4.97472C34.2032 3.47748 33.7259 2.04463 33.2652 0.676175H40.9176C41.6087 2.94619 42.3411 5.37721 43.1145 7.96921C43.888 10.5451 44.6039 12.96 45.2621 15.214L49.1377 28.2303H49.6808L53.6798 15.1415C54.3874 12.8393 55.1197 10.4405 55.8767 7.94507C56.6502 5.44966 57.3908 3.02669 58.0984 0.676175H65.5533C65.0925 2.06073 64.6153 3.49358 64.1216 4.97472C63.6279 6.45587 63.1424 7.91287 62.6652 9.34572C62.1879 10.7625 61.7354 12.1068 61.3075 13.3786L57.6788 24.2216C57.1192 25.912 56.5186 27.7152 55.8767 29.631C55.2514 31.5468 54.6425 33.3741 54.0501 35.1128H44.7684Z" fill="black"/>
<path d="M72.5466 35.1128C72.5466 33.2453 72.5466 31.4341 72.5466 29.6793C72.5466 27.9244 72.5466 25.9764 72.5466 23.8352V12.1712C72.5466 9.98164 72.5466 7.99336 72.5466 6.20633C72.5466 4.41929 72.5466 2.57591 72.5466 0.676175C73.5669 0.676175 74.7682 0.676175 76.1506 0.676175C77.5329 0.676175 79.0141 0.676175 80.5939 0.676175C82.1902 0.676175 83.8277 0.676175 85.5063 0.676175C88.3039 0.676175 90.6654 0.990114 92.5909 1.61799C94.5163 2.22977 95.9645 3.24403 96.9355 4.66078C97.9229 6.07753 98.4166 7.99337 98.4166 10.4083C98.4166 12.3563 98.0216 14.1272 97.2317 15.7211C96.4582 17.3149 95.1911 18.5868 93.4302 19.5367C91.6858 20.4704 89.3654 20.9454 86.469 20.9615L89.0115 18.2567L94.072 25.1393C94.8619 26.2018 95.693 27.3368 96.5652 28.5443C97.4538 29.7517 98.3178 30.927 99.1571 32.07C100.013 33.2131 100.762 34.2274 101.403 35.1128H93.5042C92.5333 33.7283 91.5953 32.4001 90.6901 31.1282C89.8015 29.8403 88.9293 28.5926 88.0735 27.3851L82.0997 18.8605L86.2468 22.2414H78.076V17.001H84.2473C85.7942 17.001 87.0861 16.8239 88.1229 16.4697C89.1761 16.0994 89.966 15.4957 90.4927 14.6585C91.0193 13.8053 91.2826 12.6541 91.2826 11.2052C91.2826 10.0782 91.1016 9.17667 90.7395 8.5005C90.3939 7.82432 89.9249 7.30914 89.3324 6.95495C88.74 6.60076 88.09 6.36732 87.3823 6.25463C86.6911 6.14193 85.9917 6.08558 85.2841 6.08558H74.4473L79.3103 1.71459C79.3103 3.71092 79.3103 5.6026 79.3103 7.38964C79.3103 9.16057 79.3103 11.1086 79.3103 13.2337V23.8352C79.3103 25.9764 79.3103 27.9244 79.3103 29.6793C79.3103 31.4341 79.3103 33.2453 79.3103 35.1128H72.5466Z" fill="black"/>
<path d="M105.677 35.1128C106.319 33.2614 106.994 31.3134 107.702 29.2688C108.409 27.2241 109.076 25.2841 109.701 23.4488L113.799 11.6399C114.539 9.49866 115.206 7.57478 115.798 5.86824C116.407 4.1456 117.008 2.41491 117.6 0.676175H126.536C127.145 2.47931 127.746 4.23415 128.338 5.94069C128.931 7.64723 129.589 9.54696 130.313 11.6399L134.362 23.473C135.02 25.3727 135.695 27.3288 136.386 29.3412C137.077 31.3536 137.735 33.2775 138.361 35.1128H131.227C130.634 33.2292 130.025 31.2892 129.4 29.2929C128.775 27.2966 128.182 25.4129 127.623 23.642L122.266 6.49612H121.723L116.317 23.4488C115.724 25.3002 115.107 27.2402 114.465 29.2688C113.84 31.2812 113.223 33.2292 112.614 35.1128H105.677ZM113.503 27.4334L114.194 22.3138H130.634L131.202 27.4334H113.503Z" fill="black"/>
<path d="M144.21 35.1128C144.457 33.2936 144.696 31.4824 144.926 29.6793C145.156 27.8601 145.403 25.8959 145.667 23.7869L147.123 12.2919C147.403 10.199 147.658 8.23486 147.888 6.39952C148.119 4.54809 148.357 2.64031 148.604 0.676175H155.59C156.462 2.8013 157.293 4.84593 158.083 6.81006C158.873 8.75809 159.663 10.6981 160.453 12.63L165.119 24.1008H165.588L170.13 12.6541C170.92 10.7061 171.693 8.77419 172.45 6.85835C173.223 4.92642 174.03 2.8657 174.869 0.676175H181.781C182.028 2.62421 182.266 4.52394 182.497 6.37537C182.744 8.21071 182.999 10.1909 183.262 12.3161L184.743 23.8593C185.023 25.9523 185.278 27.8923 185.508 29.6793C185.739 31.4502 185.969 33.2614 186.2 35.1128H179.633C179.304 32.4886 178.992 29.9932 178.695 27.6266C178.399 25.26 178.119 23.0463 177.856 20.9856L176.745 12.0987H176.276L172.746 21.6618C171.891 23.9962 171.027 26.3145 170.154 28.6167C169.299 30.9189 168.5 33.0843 167.76 35.1128H163.144C162.65 33.8088 162.099 32.4081 161.49 30.9109C160.897 29.3975 160.288 27.8601 159.663 26.2984C159.038 24.7207 158.421 23.1832 157.812 21.6859L154.01 12.0987H153.541L152.455 20.9373C152.192 23.0141 151.912 25.2439 151.616 27.6266C151.32 29.9932 151.015 32.4886 150.702 35.1128H144.21Z" fill="black"/>
<path d="M194.761 35.1128C194.761 33.2453 194.761 31.4341 194.761 29.6793C194.761 27.9244 194.761 25.9764 194.761 23.8352V12.1712C194.761 9.98164 194.761 7.99336 194.761 6.20633C194.761 4.41929 194.761 2.57591 194.761 0.676175H217.62V6.30293C216.073 6.30293 214.402 6.30293 212.609 6.30293C210.831 6.30293 208.733 6.30293 206.314 6.30293H197.822L201.525 1.71459C201.525 3.61432 201.525 5.46576 201.525 7.26889C201.525 9.05593 201.525 11.0442 201.525 13.2337V22.7726C201.525 24.9139 201.525 26.8619 201.525 28.6167C201.525 30.3716 201.525 32.1908 201.525 34.0744L198.266 29.4861H206.832C208.856 29.4861 210.774 29.4861 212.584 29.4861C214.394 29.4861 216.13 29.4861 217.792 29.4861V35.1128H194.761ZM199.97 20.3819V15.0449H206.536C208.741 15.0449 210.634 15.0449 212.214 15.0449C213.793 15.0449 215.316 15.0449 216.78 15.0449V20.3819C215.233 20.3819 213.67 20.3819 212.09 20.3819C210.51 20.3819 208.651 20.3819 206.511 20.3819H199.97Z" fill="black"/>
<path d="M226.136 72.7257C226.136 70.8582 226.146 31.4341 226.146 29.6793C226.146 27.9244 226.146 25.9764 226.146 23.8352V12.1953C226.146 9.98969 226.146 7.99336 226.146 6.20633C226.146 4.41929 226.146 2.57591 226.146 0.676175H232.219C234.029 3.20379 235.74 5.61065 237.353 7.89677C238.982 10.1829 240.603 12.461 242.216 14.731L248.56 23.642H249.078V12.1953C249.078 9.98969 249.078 7.99336 249.078 6.20633C249.078 4.41929 249.078 2.57591 249.078 0.676175H255.595C255.595 2.57591 255.595 4.41929 255.595 6.20633C255.595 7.99336 255.595 9.98969 255.595 12.1953V23.8352C255.595 25.9764 255.595 27.9244 255.595 29.6793C255.595 31.4341 255.595 33.2453 255.595 35.1128H249.597C248.116 33.0199 246.561 30.8384 244.931 28.5684C243.302 26.2823 241.517 23.7789 239.575 21.058L233.157 12.0504H232.638V23.8352C232.638 25.9764 232.638 27.9244 232.638 29.6793C232.638 31.4341 232.997 70.8582 232.997 72.7257H226.136Z" fill="black"/>
<path d="M285.931 35.1128C284.68 33.5351 283.504 32.054 282.401 30.6694C281.315 29.2849 280.245 27.9325 279.192 26.6123L273.86 19.923H271.54V14.5619H273.786L278.501 9.05593C279.603 7.75187 280.698 6.45587 281.784 5.16792C282.887 3.87996 284.154 2.38272 285.586 0.676175H293.633C292.02 2.49541 290.44 4.28245 288.893 6.03728C287.363 7.79212 285.816 9.55501 284.252 11.3259L278.377 18.0153L278.254 15.0449L284.796 23.2315C285.799 24.4872 286.877 25.8396 288.029 27.2885C289.198 28.7375 290.333 30.1462 291.436 31.5146C292.538 32.8831 293.501 34.0825 294.324 35.1128H285.931ZM265.245 35.1128C265.245 33.2453 265.245 31.4341 265.245 29.6793C265.245 27.9244 265.245 25.9764 265.245 23.8352V12.1953C265.245 9.98969 265.245 7.99336 265.245 6.20633C265.245 4.41929 265.245 2.57591 265.245 0.676175H272.157C272.157 2.57591 272.157 4.41929 272.157 6.20633C272.157 7.99336 272.157 9.98969 272.157 12.1953V23.8352C272.157 25.9764 272.157 27.9244 272.157 29.6793C272.157 31.4341 272.157 33.2453 272.157 35.1128H265.245Z" fill="black"/>
<path d="M315.843 35.7166C312.733 35.7166 310.025 35.2416 307.722 34.2918C305.434 33.3419 303.542 32.0379 302.044 30.3796C300.563 28.7214 299.452 26.8216 298.711 24.6804C297.987 22.5392 297.625 20.2772 297.625 17.8945C297.625 14.5619 298.308 11.5433 299.674 8.83858C301.04 6.11778 303.056 3.96851 305.722 2.39077C308.404 0.796922 311.712 0 315.645 0C318.641 0 321.265 0.458833 323.52 1.3765C325.775 2.29417 327.659 3.57407 329.173 5.21621C330.687 6.85836 331.822 8.75809 332.579 10.9154C333.336 13.0727 333.715 15.3911 333.715 17.8704C333.715 21.2834 333.024 24.3343 331.641 27.0229C330.259 29.7115 328.235 31.8366 325.569 33.3983C322.903 34.9438 319.661 35.7166 315.843 35.7166ZM315.72 30.0898C317.563 30.0898 319.159 29.7678 320.508 29.1239C321.858 28.4638 322.977 27.5622 323.866 26.4192C324.771 25.26 325.437 23.9479 325.865 22.4828C326.309 21.0178 326.532 19.4803 326.532 17.8704C326.532 16.1477 326.293 14.5458 325.816 13.0647C325.339 11.5835 324.639 10.2875 323.717 9.17667C322.812 8.04971 321.685 7.18034 320.336 6.56857C319.003 5.94069 317.464 5.62675 315.72 5.62675C313.926 5.62675 312.346 5.94874 310.98 6.59271C309.614 7.23669 308.47 8.13021 307.549 9.27327C306.644 10.4163 305.961 11.7284 305.5 13.2096C305.039 14.6746 304.809 16.2282 304.809 17.8704C304.809 19.5125 305.031 21.0661 305.475 22.5311C305.92 23.9962 306.594 25.3002 307.499 26.4433C308.404 27.5864 309.54 28.4799 310.906 29.1239C312.272 29.7678 313.876 30.0898 315.72 30.0898Z" fill="black"/>
<path d="M47.205 72.678C47.205 71.6226 47.205 70.6075 47.205 69.6325C47.205 68.6576 47.205 67.5754 47.205 66.3858V59.9461C47.205 58.7297 47.205 57.6251 47.205 56.6323C47.205 55.6395 47.205 54.6109 47.205 53.5465C48.0004 53.5465 48.7912 53.5465 49.5775 53.5465C50.3729 53.5465 51.1683 53.5465 51.9637 53.5465C52.7591 53.5465 53.5728 53.5465 54.4048 53.5465C55.9042 53.5465 57.2344 53.7612 58.3956 54.1905C59.5658 54.6109 60.5532 55.2325 61.3578 56.0554C62.1623 56.8693 62.7703 57.8621 63.1817 59.0338C63.6023 60.2054 63.8126 61.5426 63.8126 63.0452C63.8126 64.3958 63.6251 65.6569 63.2503 66.8286C62.8846 67.9913 62.2995 69.0109 61.4949 69.8874C60.6995 70.764 59.6481 71.4482 58.3407 71.9401C57.0333 72.4321 55.4425 72.678 53.5682 72.678C52.7545 72.678 51.9957 72.678 51.2917 72.678C50.5877 72.678 49.902 72.678 49.2346 72.678C48.5764 72.678 47.8998 72.678 47.205 72.678ZM50.4277 70.1021H53.582C55.2733 70.1021 56.6219 69.7935 57.6276 69.1764C58.6333 68.5592 59.3555 67.714 59.7944 66.6407C60.2332 65.5674 60.4527 64.351 60.4527 62.9915C60.4527 61.954 60.3247 61.0149 60.0687 60.1741C59.8127 59.3244 59.415 58.6 58.8755 58.0007C58.3361 57.3925 57.6504 56.9274 56.8184 56.6054C55.9865 56.2834 54.9945 56.1224 53.8425 56.1224H50.4277C50.4277 56.829 50.4277 57.5401 50.4277 58.2556C50.4277 58.9622 50.4277 59.7448 50.4277 60.6034V65.7016C50.4277 66.5423 50.4277 67.316 50.4277 68.0226C50.4277 68.7202 50.4277 69.4134 50.4277 70.1021Z" fill="black"/>
<path d="M68.4575 72.678C68.4575 71.6226 68.4575 70.6075 68.4575 69.6325C68.4575 68.6576 68.4575 67.5754 68.4575 66.3858V59.9326C68.4575 58.7341 68.4575 57.634 68.4575 56.6323C68.4575 55.6305 68.4575 54.6019 68.4575 53.5465H80.9098V56.2029C80.023 56.2029 79.0721 56.2029 78.0573 56.2029C77.0425 56.2029 75.8448 56.2029 74.4643 56.2029H69.8152L71.6117 54.0295C71.6117 55.0849 71.6117 56.1135 71.6117 57.1152C71.6117 58.108 71.6117 59.2082 71.6117 60.4156V65.9028C71.6117 67.0835 71.6117 68.1657 71.6117 69.1496C71.6117 70.1245 71.6117 71.1396 71.6117 72.195L70.0072 70.0216H74.7248C75.8768 70.0216 76.9693 70.0216 78.0025 70.0216C79.0356 70.0216 80.0276 70.0216 80.9784 70.0216V72.678H68.4575ZM70.8986 64.2795V61.717H74.6151C75.8585 61.717 76.9236 61.717 77.8105 61.717C78.7064 61.717 79.5704 61.717 80.4024 61.717V64.2795C79.5339 64.2795 78.6516 64.2795 77.7556 64.2795C76.8688 64.2795 75.8174 64.2795 74.6014 64.2795H70.8986Z" fill="black"/>
<path d="M90.9272 72.678C90.5981 71.721 90.2415 70.7014 89.8575 69.6191C89.4827 68.5369 89.1353 67.5351 88.8153 66.6139L86.717 60.6169C86.4793 59.9282 86.2188 59.1858 85.9353 58.3898C85.6611 57.5848 85.3776 56.7664 85.0851 55.9346C84.8017 55.1028 84.5274 54.3068 84.2622 53.5465H87.8279C88.2576 54.8613 88.7101 56.2655 89.1856 57.7592C89.6701 59.2439 90.1227 60.6392 90.5432 61.9451L92.9706 69.4447H93.2449L95.7134 61.9048C96.1523 60.5721 96.6048 59.1858 97.0711 57.7458C97.5465 56.3058 98.0082 54.906 98.4562 53.5465H101.912C101.647 54.3157 101.373 55.1118 101.089 55.9346C100.806 56.7485 100.522 57.558 100.239 58.3629C99.9647 59.159 99.7087 59.9013 99.471 60.59L97.3728 66.6273C97.0528 67.5575 96.7054 68.5592 96.3305 69.6325C95.9648 70.6969 95.6128 71.712 95.2746 72.678H90.9272Z" fill="black"/>
<path d="M106.035 72.678C106.035 71.6226 106.035 70.6075 106.035 69.6325C106.035 68.6576 106.035 67.5754 106.035 66.3858V59.9326C106.035 58.7341 106.035 57.634 106.035 56.6323C106.035 55.6305 106.035 54.6019 106.035 53.5465H118.487V56.2029C117.6 56.2029 116.649 56.2029 115.635 56.2029C114.62 56.2029 113.422 56.2029 112.042 56.2029H107.393L109.189 54.0295C109.189 55.0849 109.189 56.1135 109.189 57.1152C109.189 58.108 109.189 59.2082 109.189 60.4156V65.9028C109.189 67.0835 109.189 68.1657 109.189 69.1496C109.189 70.1245 109.189 71.1396 109.189 72.195L107.585 70.0216H112.302C113.454 70.0216 114.547 70.0216 115.58 70.0216C116.613 70.0216 117.605 70.0216 118.556 70.0216V72.678H106.035ZM108.476 64.2795V61.717H112.192C113.436 61.717 114.501 61.717 115.388 61.717C116.284 61.717 117.148 61.717 117.98 61.717V64.2795C117.111 64.2795 116.229 64.2795 115.333 64.2795C114.446 64.2795 113.395 64.2795 112.179 64.2795H108.476Z" fill="black"/>
<path d="M123.458 72.678C123.458 71.6226 123.458 70.6075 123.458 69.6325C123.458 68.6576 123.458 67.5754 123.458 66.3858V59.9461C123.458 58.7297 123.458 57.6251 123.458 56.6323C123.458 55.6395 123.458 54.6109 123.458 53.5465H126.681C126.681 54.6109 126.681 55.6395 126.681 56.6323C126.681 57.6251 126.681 58.7297 126.681 59.9461V65.8894C126.681 67.079 126.681 68.1657 126.681 69.1496C126.681 70.1245 126.681 71.1352 126.681 72.1816L125.515 69.9009H129.19C130.196 69.9009 131.083 69.9009 131.851 69.9009C132.628 69.9009 133.346 69.9009 134.004 69.9009C134.662 69.9009 135.339 69.9009 136.034 69.9009V72.678H123.458Z" fill="black"/>
<path d="M148.818 73C147.118 73 145.637 72.7362 144.375 72.2084C143.122 71.6807 142.08 70.9563 141.248 70.035C140.425 69.1138 139.808 68.0584 139.397 66.8688C138.985 65.6792 138.78 64.4226 138.78 63.0989C138.78 61.2474 139.159 59.5749 139.918 58.0812C140.686 56.5786 141.806 55.389 143.278 54.5125C144.759 53.627 146.574 53.1843 148.722 53.1843C150.35 53.1843 151.78 53.4392 153.015 53.949C154.258 54.4588 155.296 55.1699 156.128 56.0822C156.969 56.9855 157.6 58.0365 158.02 59.235C158.441 60.4335 158.651 61.7215 158.651 63.0989C158.651 64.9861 158.267 66.6765 157.499 68.1702C156.731 69.6638 155.611 70.8445 154.139 71.7121C152.676 72.5707 150.903 73 148.818 73ZM148.75 70.3436C149.874 70.3436 150.848 70.1468 151.671 69.7533C152.494 69.3597 153.175 68.8231 153.714 68.1433C154.253 67.4636 154.651 66.6899 154.907 65.8223C155.172 64.9548 155.305 64.0469 155.305 63.0989C155.305 62.0792 155.163 61.1312 154.88 60.2546C154.596 59.3781 154.176 58.6089 153.618 57.947C153.07 57.2852 152.388 56.7709 151.575 56.4042C150.761 56.0285 149.819 55.8407 148.75 55.8407C147.643 55.8407 146.679 56.033 145.856 56.4176C145.033 56.8022 144.343 57.3344 143.785 58.0141C143.237 58.6939 142.825 59.4675 142.551 60.3351C142.277 61.2027 142.139 62.1239 142.139 63.0989C142.139 64.0648 142.272 64.9816 142.537 65.8492C142.802 66.7168 143.205 67.4904 143.744 68.1702C144.293 68.841 144.983 69.3732 145.815 69.7667C146.647 70.1513 147.625 70.3436 148.75 70.3436Z" fill="black"/>
<path d="M163.325 72.678C163.325 71.6226 163.325 70.6075 163.325 69.6325C163.325 68.6576 163.325 67.5754 163.325 66.3858V59.9326C163.325 58.7341 163.325 57.634 163.325 56.6323C163.325 55.6305 163.325 54.6019 163.325 53.5465C164.093 53.5465 165.094 53.5465 166.328 53.5465C167.563 53.5465 168.98 53.5465 170.58 53.5465C172.106 53.5465 173.373 53.7388 174.378 54.1234C175.384 54.508 176.138 55.1162 176.641 55.948C177.144 56.7798 177.396 57.871 177.396 59.2216C177.396 60.4201 177.172 61.4844 176.724 62.4146C176.276 63.3448 175.535 64.0738 174.502 64.6015C173.469 65.1292 172.074 65.393 170.319 65.393C169.871 65.393 169.387 65.393 168.865 65.393C168.353 65.393 167.851 65.393 167.357 65.393C166.863 65.393 166.438 65.393 166.081 65.393V62.8305H169.647C170.68 62.8305 171.526 62.7098 172.184 62.4683C172.842 62.2268 173.327 61.8422 173.638 61.3145C173.958 60.7868 174.118 60.0981 174.118 59.2484C174.118 58.5508 174.004 57.9962 173.775 57.5848C173.546 57.1644 173.245 56.8514 172.87 56.6457C172.504 56.431 172.097 56.2879 171.649 56.2164C171.211 56.1448 170.781 56.109 170.36 56.109H164.943L166.507 54.0295C166.507 55.0849 166.507 56.1135 166.507 57.1152C166.507 58.108 166.507 59.2082 166.507 60.4156V66.3858C166.507 67.5754 166.507 68.6576 166.507 69.6325C166.507 70.6075 166.507 71.6226 166.507 72.678H163.325Z" fill="black"/>
<path d="M180.827 72.678C180.955 71.6584 181.083 70.6432 181.211 69.6325C181.339 68.6219 181.476 67.5262 181.622 66.3456L182.445 59.9997C182.591 58.828 182.728 57.7369 182.856 56.7262C182.984 55.7065 183.121 54.6467 183.268 53.5465H186.504C187.034 54.8077 187.537 56.0241 188.013 57.1957C188.497 58.3585 188.977 59.5212 189.453 60.6839L192.278 67.5262H192.511L195.281 60.6839C195.747 59.5212 196.214 58.3629 196.68 57.2092C197.155 56.0554 197.649 54.8345 198.161 53.5465H201.384C201.521 54.6377 201.654 55.6931 201.782 56.7128C201.91 57.7234 202.051 58.8191 202.207 59.9997L203.016 66.3992C203.162 67.553 203.299 68.6263 203.427 69.6191C203.555 70.6119 203.683 71.6316 203.811 72.678H200.739C200.547 71.1128 200.364 69.6236 200.191 68.2104C200.017 66.7973 199.852 65.478 199.697 64.2526L199.039 58.9667H198.806L196.611 64.6551C196.072 66.0415 195.533 67.4233 194.993 68.8007C194.463 70.1781 193.969 71.4706 193.512 72.678H191.345C191.043 71.9088 190.71 71.077 190.344 70.1826C189.978 69.2882 189.604 68.3714 189.22 67.4323C188.845 66.4932 188.474 65.5764 188.109 64.682L185.791 58.9667H185.558L184.913 64.2258C184.758 65.4601 184.593 66.7883 184.42 68.2104C184.246 69.6236 184.058 71.1128 183.857 72.678H180.827Z" fill="black"/>
<path d="M208.671 72.678C208.671 71.6226 208.671 70.6075 208.671 69.6325C208.671 68.6576 208.671 67.5754 208.671 66.3858V59.9326C208.671 58.7341 208.671 57.634 208.671 56.6323C208.671 55.6305 208.671 54.6019 208.671 53.5465H221.124V56.2029C220.237 56.2029 219.286 56.2029 218.271 56.2029C217.256 56.2029 216.059 56.2029 214.678 56.2029H210.029L211.826 54.0295C211.826 55.0849 211.826 56.1135 211.826 57.1152C211.826 58.108 211.826 59.2082 211.826 60.4156V65.9028C211.826 67.0835 211.826 68.1657 211.826 69.1496C211.826 70.1245 211.826 71.1396 211.826 72.195L210.221 70.0216H214.939C216.091 70.0216 217.183 70.0216 218.216 70.0216C219.249 70.0216 220.241 70.0216 221.192 70.0216V72.678H208.671ZM211.112 64.2795V61.717H214.829C216.072 61.717 217.137 61.717 218.024 61.717C218.92 61.717 219.784 61.717 220.616 61.717V64.2795C219.748 64.2795 218.865 64.2795 217.969 64.2795C217.083 64.2795 216.031 64.2795 214.815 64.2795H211.112Z" fill="black"/>
<path d="M226.307 72.678C226.307 71.6226 226.307 70.6075 226.307 69.6325C226.307 68.6576 226.307 67.5754 226.307 66.3858V59.9461C226.307 58.7297 226.307 57.6251 226.307 56.6323C226.307 55.6395 226.307 54.6109 226.307 53.5465H229.16C230.239 55.0491 231.267 56.4847 232.245 57.8531C233.233 59.2216 234.206 60.5811 235.166 61.9317L239.02 67.2847H239.281V59.9461C239.281 58.7297 239.281 57.6251 239.281 56.6323C239.281 55.6395 239.281 54.6109 239.281 53.5465H242.311C242.311 54.6109 242.311 55.6395 242.311 56.6323C242.311 57.6251 242.311 58.7297 242.311 59.9461V66.3858C242.311 67.5754 242.311 68.6576 242.311 69.6325C242.311 70.6075 242.311 71.6226 242.311 72.678H239.5C238.613 71.4348 237.676 70.1334 236.689 68.7739C235.71 67.4055 234.636 65.9073 233.466 64.2795L229.585 58.8728H229.338V66.3858C229.338 67.5754 229.338 68.6576 229.338 69.6325C229.338 70.6075 229.338 71.6226 229.338 72.678H226.307Z" fill="black"/>
<path d="M252.952 72.678C252.952 71.6226 252.952 70.6075 252.952 69.6325C252.952 68.6576 252.952 67.5754 252.952 66.3858V60.4156C252.952 59.2082 252.952 58.108 252.952 57.1152C252.952 56.1135 252.952 55.0849 252.952 54.0295L254.2 56.3237H251.772C250.693 56.3237 249.738 56.3237 248.906 56.3237C248.074 56.3237 247.283 56.3237 246.533 56.3237V53.5465H262.565V56.3237C261.824 56.3237 261.038 56.3237 260.206 56.3237C259.374 56.3237 258.414 56.3237 257.326 56.3237H254.899L256.161 54.0295C256.161 55.0849 256.161 56.1135 256.161 57.1152C256.161 58.108 256.161 59.2082 256.161 60.4156V66.3858C256.161 67.5754 256.161 68.6576 256.161 69.6325C256.161 70.6075 256.161 71.6226 256.161 72.678H252.952Z" fill="black"/>
</svg>
