<svg width="400" height="88" viewBox="0 0 400 88" fill="none" xmlns="http://www.w3.org/2000/svg">
<path d="M0 42.3278C0.769296 40.096 1.57804 37.7476 2.42624 35.2829C3.27444 32.8181 4.07332 30.4795 4.82289 28.2671L9.73455 14.0316C10.6222 11.4504 11.4211 9.13124 12.1312 7.07404C12.861 4.99744 13.581 2.91113 14.2911 0.815116H25.0021C25.732 2.98876 26.4519 5.10418 27.1621 7.16138C27.8722 9.21858 28.6612 11.5087 29.5291 14.0316L34.3816 28.2962C35.1706 30.5863 35.9794 32.9443 36.8078 35.3702C37.6363 37.7962 38.4253 40.1154 39.1749 42.3278H30.6239C29.9138 40.0571 29.1839 37.7185 28.4344 35.312C27.6848 32.9055 26.9747 30.6348 26.304 28.5L19.8833 7.83094H19.2324L12.7526 28.2671C12.0424 30.4989 11.3027 32.8375 10.5334 35.2829C9.78386 37.7088 9.04416 40.0571 8.31431 42.3278H0ZM9.37949 33.0704L10.208 26.8988H29.9138L30.5943 33.0704H9.37949Z" fill="#080D16"/>
<path d="M53.6607 42.3278C52.9703 40.2512 52.2306 38.0388 51.4416 35.6904C50.6723 33.3421 49.9523 31.1685 49.2816 29.1695L44.9617 16.1568C44.4686 14.6818 43.9261 13.071 43.3344 11.3243C42.7623 9.55821 42.1804 7.78242 41.5887 5.99693C40.9969 4.19203 40.4249 2.46476 39.8725 0.815116H49.0449C49.8734 3.55158 50.7512 6.48211 51.6783 9.60673C52.6054 12.7119 53.4634 15.6231 54.2525 18.3401L58.8978 34.0311H59.5488L64.3421 18.2528C65.1903 15.4775 66.068 12.5858 66.9754 9.57762C67.9025 6.56945 68.7902 3.64862 69.6384 0.815116H78.574C78.0217 2.48416 77.4497 4.21144 76.8579 5.99693C76.2661 7.78242 75.6842 9.5388 75.1122 11.2661C74.5402 12.9739 73.9977 14.5945 73.4848 16.1277L69.1354 29.1986C68.4647 31.2364 67.7447 33.4101 66.9754 35.7196C66.2258 38.0291 65.496 40.2318 64.7859 42.3278H53.6607Z" fill="#080D16"/>
<path d="M86.9563 42.3278C86.9563 40.0765 86.9563 37.8932 86.9563 35.7778C86.9563 33.6624 86.9563 31.314 86.9563 28.7328V14.6721C86.9563 12.0327 86.9563 9.63584 86.9563 7.4816C86.9563 5.32737 86.9563 3.1052 86.9563 0.815116C88.1793 0.815116 89.6192 0.815116 91.2762 0.815116C92.9331 0.815116 94.7084 0.815116 96.6021 0.815116C98.5155 0.815116 100.478 0.815116 102.49 0.815116C105.844 0.815116 108.674 1.19356 110.982 1.95046C113.29 2.68794 115.026 3.91062 116.19 5.61848C117.373 7.32634 117.965 9.63584 117.965 12.547C117.965 14.8953 117.491 17.0301 116.545 18.9515C115.618 20.8728 114.099 22.406 111.988 23.551C109.897 24.6767 107.116 25.2492 103.644 25.2686L106.692 22.0081L112.757 30.3049C113.704 31.5858 114.7 32.954 115.746 34.4095C116.811 35.8651 117.846 37.2819 118.852 38.6598C119.878 40.0377 120.776 41.2604 121.545 42.3278H112.077C110.913 40.6588 109.789 39.0576 108.704 37.5245C107.639 35.9719 106.593 34.4678 105.567 33.0122L98.407 22.7359L103.378 26.8115H93.5841V20.4943H100.981C102.835 20.4943 104.384 20.2809 105.627 19.8539C106.889 19.4075 107.836 18.6797 108.467 17.6706C109.098 16.642 109.414 15.2543 109.414 13.5076C109.414 12.1491 109.197 11.0623 108.763 10.2472C108.349 9.43206 107.786 8.81102 107.076 8.38406C106.366 7.95709 105.587 7.67568 104.739 7.53983C103.91 7.40397 103.072 7.33605 102.224 7.33605H89.2346L95.0635 2.0669C95.0635 4.47344 95.0635 6.75382 95.0635 8.90806C95.0635 11.0429 95.0635 13.3912 95.0635 15.953V28.7328C95.0635 31.314 95.0635 33.6624 95.0635 35.7778C95.0635 37.8932 95.0635 40.0765 95.0635 42.3278H86.9563Z" fill="#080D16"/>
<path d="M126.668 42.3278C127.437 40.096 128.246 37.7476 129.094 35.2829C129.942 32.8181 130.741 30.4795 131.491 28.2671L136.403 14.0316C137.29 11.4504 138.089 9.13124 138.799 7.07404C139.529 4.99744 140.249 2.91113 140.959 0.815116H151.67C152.4 2.98876 153.12 5.10418 153.83 7.16138C154.54 9.21858 155.329 11.5087 156.197 14.0316L161.05 28.2962C161.839 30.5863 162.647 32.9443 163.476 35.3702C164.304 37.7962 165.093 40.1154 165.843 42.3278H157.292C156.582 40.0571 155.852 37.7185 155.102 35.312C154.353 32.9055 153.643 30.6348 152.972 28.5L146.551 7.83094H145.9L139.421 28.2671C138.71 30.4989 137.971 32.8375 137.201 35.2829C136.452 37.7088 135.712 40.0571 134.982 42.3278H126.668ZM136.047 33.0704L136.876 26.8988H156.582L157.262 33.0704H136.047Z" fill="#080D16"/>
<path d="M172.854 42.3278C173.15 40.1348 173.436 37.9514 173.712 35.7778C173.989 33.5847 174.284 31.217 174.6 28.6746L176.346 14.8176C176.681 12.2947 176.987 9.92695 177.263 7.71449C177.539 5.48263 177.825 3.18284 178.121 0.815116H186.495C187.54 3.37691 188.536 5.84167 189.483 8.20939C190.43 10.5577 191.377 12.8963 192.323 15.2252L197.916 29.0531H198.478L203.922 15.2543C204.869 12.906 205.796 10.5771 206.703 8.26761C207.63 5.9387 208.597 3.45454 209.603 0.815116H217.888C218.184 3.16343 218.47 5.45352 218.746 7.68538C219.042 9.89784 219.347 12.285 219.663 14.8468L221.438 28.762C221.774 31.2849 222.079 33.6235 222.356 35.7778C222.632 37.9126 222.908 40.096 223.184 42.3278H215.314C214.919 39.1644 214.544 36.1562 214.189 33.3033C213.834 30.4504 213.499 27.7819 213.183 25.2977L211.852 14.5848H211.29L207.058 26.1128C206.033 28.9269 204.997 31.7216 203.952 34.4969C202.926 37.2722 201.969 39.8825 201.082 42.3278H195.549C194.957 40.7558 194.296 39.0674 193.566 37.2625C192.856 35.4381 192.126 33.5847 191.377 31.7022C190.627 29.8003 189.887 27.9468 189.158 26.1419L184.601 14.5848H184.039L182.737 25.2395C182.421 27.7431 182.086 30.431 181.731 33.3033C181.376 36.1562 181.011 39.1644 180.636 42.3278H172.854Z" fill="#080D16"/>
<path d="M233.446 42.3278C233.446 40.0765 233.446 37.8932 233.446 35.7778C233.446 33.6624 233.446 31.314 233.446 28.7328V14.6721C233.446 12.0327 233.446 9.63584 233.446 7.4816C233.446 5.32737 233.446 3.1052 233.446 0.815116H260.845V7.59805C258.991 7.59805 256.989 7.59805 254.838 7.59805C252.708 7.59805 250.193 7.59805 247.293 7.59805H237.115L241.553 2.0669C241.553 4.35699 241.553 6.58886 241.553 8.7625C241.553 10.9167 241.553 13.3136 241.553 15.953V27.452C241.553 30.0332 241.553 32.3815 241.553 34.4969C241.553 36.6123 241.553 38.8054 241.553 41.076L237.648 35.5449H247.915C250.341 35.5449 252.639 35.5449 254.809 35.5449C256.979 35.5449 259.06 35.5449 261.052 35.5449V42.3278H233.446ZM239.689 24.5699V18.1363H247.56C250.203 18.1363 252.471 18.1363 254.365 18.1363C256.259 18.1363 258.083 18.1363 259.839 18.1363V24.5699C257.985 24.5699 256.111 24.5699 254.217 24.5699C252.323 24.5699 250.094 24.5699 247.53 24.5699H239.689Z" fill="#080D16"/>
<path d="M271.053 87.6694C271.053 85.4181 271.065 37.8932 271.065 35.7778C271.065 33.6624 271.065 31.314 271.065 28.7328V14.7012C271.065 12.0424 271.065 9.63584 271.065 7.4816C271.065 5.32737 271.065 3.1052 271.065 0.815116H278.344C280.513 3.8621 282.565 6.76353 284.498 9.51939C286.451 12.2753 288.394 15.0214 290.327 17.7579L297.931 28.5H298.552V14.7012C298.552 12.0424 298.552 9.63584 298.552 7.4816C298.552 5.32737 298.552 3.1052 298.552 0.815116H306.364C306.364 3.1052 306.364 5.32737 306.364 7.4816C306.364 9.63584 306.364 12.0424 306.364 14.7012V28.7328C306.364 31.314 306.364 33.6624 306.364 35.7778C306.364 37.8932 306.364 40.0765 306.364 42.3278H299.174C297.398 39.8048 295.534 37.1751 293.582 34.4387C291.629 31.6828 289.488 28.6649 287.161 25.385L279.468 14.5265H278.847V28.7328C278.847 31.314 278.847 33.6624 278.847 35.7778C278.847 37.8932 279.276 85.4181 279.276 87.6694H271.053Z" fill="#080D16"/>
<path d="M342.725 42.3278C341.226 40.4259 339.815 38.6404 338.494 36.9713C337.192 35.3023 335.91 33.6721 334.647 32.0806L328.256 24.0168H325.475V17.5541H328.167L333.819 10.9167C335.14 9.34472 336.452 7.78242 337.754 6.22982C339.076 4.67722 340.595 2.87231 342.311 0.815116H351.956C350.023 3.00817 348.13 5.1624 346.276 7.27782C344.441 9.39324 342.587 11.5184 340.713 13.6532L333.671 21.717L333.523 18.1363L341.364 28.0051C342.567 29.5189 343.859 31.1491 345.24 32.8958C346.64 34.6424 348.001 36.3406 349.323 37.9902C350.645 39.6399 351.799 41.0857 352.785 42.3278H342.725ZM317.93 42.3278C317.93 40.0765 317.93 37.8932 317.93 35.7778C317.93 33.6624 317.93 31.314 317.93 28.7328V14.7012C317.93 12.0424 317.93 9.63584 317.93 7.4816C317.93 5.32737 317.93 3.1052 317.93 0.815116H326.215C326.215 3.1052 326.215 5.32737 326.215 7.4816C326.215 9.63584 326.215 12.0424 326.215 14.7012V28.7328C326.215 31.314 326.215 33.6624 326.215 35.7778C326.215 37.8932 326.215 40.0765 326.215 42.3278H317.93Z" fill="#080D16"/>
<path d="M378.578 43.0556C374.85 43.0556 371.605 42.4831 368.844 41.338C366.102 40.193 363.833 38.621 362.038 36.622C360.263 34.623 358.931 32.3329 358.044 29.7517C357.176 27.1705 356.742 24.4438 356.742 21.5715C356.742 17.5541 357.561 13.9152 359.198 10.6547C360.835 7.37486 363.251 4.78396 366.447 2.88202C369.662 0.960673 373.627 0 378.341 0C381.931 0 385.078 0.553114 387.78 1.65934C390.482 2.76557 392.741 4.30847 394.556 6.28804C396.371 8.26761 397.732 10.5577 398.639 13.1583C399.546 15.7589 400 18.5536 400 21.5424C400 25.6568 399.172 29.3345 397.515 32.5755C395.858 35.8166 393.431 38.3784 390.236 40.2609C387.04 42.124 383.154 43.0556 378.578 43.0556ZM378.43 36.2727C380.639 36.2727 382.553 35.8845 384.17 35.1082C385.788 34.3125 387.129 33.2257 388.194 31.8478C389.279 30.4504 390.078 28.8687 390.591 27.1026C391.124 25.3365 391.39 23.4831 391.39 21.5424C391.39 19.4658 391.104 17.5347 390.532 15.7492C389.96 13.9637 389.121 12.4014 388.017 11.0623C386.932 9.70376 385.581 8.65576 383.963 7.91827C382.365 7.16138 380.521 6.78293 378.43 6.78293C376.28 6.78293 374.386 7.17108 372.749 7.94738C371.112 8.72368 369.741 9.8008 368.636 11.1787C367.551 12.5567 366.733 14.1384 366.181 15.9239C365.628 17.69 365.352 19.5628 365.352 21.5424C365.352 23.5219 365.618 25.3948 366.151 27.1608C366.684 28.9269 367.492 30.4989 368.577 31.8769C369.662 33.2548 371.023 34.3319 372.66 35.1082C374.298 35.8845 376.221 36.2727 378.43 36.2727Z" fill="#080D16"/>
<path d="M56.5811 87.6116C56.5811 86.3393 56.5811 85.1156 56.5811 83.9403C56.5811 82.7651 56.5811 81.4605 56.5811 80.0265V72.2635C56.5811 70.7971 56.5811 69.4655 56.5811 68.2687C56.5811 67.072 56.5811 65.832 56.5811 64.549C57.5345 64.549 58.4824 64.549 59.4248 64.549C60.3782 64.549 61.3316 64.549 62.285 64.549C63.2384 64.549 64.2137 64.549 65.211 64.549C67.0082 64.549 68.6027 64.8077 69.9944 65.3253C71.3971 65.832 72.5807 66.5814 73.545 67.5733C74.5094 68.5545 75.2381 69.7513 75.7313 71.1637C76.2354 72.5761 76.4874 74.188 76.4874 75.9994C76.4874 77.6275 76.2628 79.1477 75.8134 80.5602C75.3751 81.9618 74.6737 83.191 73.7094 84.2476C72.756 85.3042 71.4957 86.1291 69.9287 86.7221C68.3616 87.3151 66.4548 87.6116 64.2083 87.6116C63.2329 87.6116 62.3234 87.6116 61.4796 87.6116C60.6357 87.6116 59.8138 87.6116 59.0139 87.6116C58.2248 87.6116 57.4139 87.6116 56.5811 87.6116ZM60.444 84.5064H64.2247C66.252 84.5064 67.8684 84.1344 69.0739 83.3904C70.2793 82.6465 71.1451 81.6276 71.6711 80.3338C72.1971 79.0399 72.4601 77.5736 72.4601 75.9347C72.4601 74.684 72.3067 73.5519 71.9998 72.5384C71.693 71.5141 71.2163 70.6408 70.5697 69.9184C69.9232 69.1852 69.1013 68.6246 68.1041 68.2364C67.1068 67.8483 65.9178 67.6542 64.537 67.6542H60.444C60.444 68.506 60.444 69.3631 60.444 70.2257C60.444 71.0775 60.444 72.0209 60.444 73.0559V79.2017C60.444 80.2152 60.444 81.1478 60.444 81.9996C60.444 82.8406 60.444 83.6762 60.444 84.5064Z" fill="#4267B2"/>
<path d="M82.055 87.6116C82.055 86.3393 82.055 85.1156 82.055 83.9403C82.055 82.7651 82.055 81.4605 82.055 80.0265V72.2473C82.055 70.8025 82.055 69.4763 82.055 68.2687C82.055 67.0612 82.055 65.8212 82.055 64.549H96.9806V67.7512C95.9176 67.7512 94.7779 67.7512 93.5615 67.7512C92.3451 67.7512 90.9096 67.7512 89.2548 67.7512H85.8357V65.1312C85.8357 66.4035 85.8357 67.6434 85.8357 68.851C85.8357 70.0478 85.8357 71.374 85.8357 72.8295V79.4443C85.8357 80.8675 85.8357 82.1721 85.8357 83.3581C85.8357 84.5333 85.8357 85.7571 85.8357 87.0294V84.4093H89.5671C90.9479 84.4093 92.2575 84.4093 93.4958 84.4093C94.7341 84.4093 95.9231 84.4093 97.0628 84.4093V87.6116H82.055ZM85.8357 77.4873V74.3983H89.4356C90.926 74.3983 92.2027 74.3983 93.2657 74.3983C94.3396 74.3983 95.3752 74.3983 96.3724 74.3983V77.4873C95.3314 77.4873 94.2738 77.4873 93.1999 77.4873C92.1369 77.4873 90.8767 77.4873 89.4192 77.4873H85.8357Z" fill="#4267B2"/>
<path d="M108.988 87.6116C108.593 86.4579 108.166 85.2288 107.706 83.9242C107.256 82.6195 106.84 81.412 106.456 80.3014L103.941 73.0721C103.656 72.2419 103.344 71.347 103.004 70.3874C102.676 69.417 102.336 68.4305 101.985 67.4278C101.645 66.425 101.317 65.4654 100.999 64.549H105.273C105.788 66.1339 106.33 67.8267 106.9 69.6273C107.481 71.4171 108.023 73.0991 108.528 74.6732L111.437 83.7139H111.766L114.725 74.6247C115.251 73.0182 115.793 71.347 116.352 69.6111C116.922 67.8752 117.475 66.1878 118.012 64.549H122.155C121.837 65.4762 121.508 66.4358 121.168 67.4278C120.829 68.4089 120.489 69.3847 120.149 70.3551C119.82 71.3147 119.514 72.2096 119.229 73.0398L116.714 80.3176C116.33 81.4389 115.914 82.6465 115.464 83.9403C115.026 85.2234 114.604 86.4471 114.199 87.6116H108.988Z" fill="#4267B2"/>
<path d="M127.096 87.6116C127.096 86.3393 127.096 85.1156 127.096 83.9403C127.096 82.7651 127.096 81.4605 127.096 80.0265V72.2473C127.096 70.8025 127.096 69.4763 127.096 68.2687C127.096 67.0612 127.096 65.8212 127.096 64.549H142.022V67.7512C140.959 67.7512 139.819 67.7512 138.603 67.7512C137.386 67.7512 135.951 67.7512 134.296 67.7512H130.877V65.1312C130.877 66.4035 130.877 67.6434 130.877 68.851C130.877 70.0478 130.877 71.374 130.877 72.8295V79.4443C130.877 80.8675 130.877 82.1721 130.877 83.3581C130.877 84.5333 130.877 85.7571 130.877 87.0294V84.4093H134.608C135.989 84.4093 137.299 84.4093 138.537 84.4093C139.775 84.4093 140.964 84.4093 142.104 84.4093V87.6116H127.096ZM130.877 77.4873V74.3983H134.477C135.967 74.3983 137.244 74.3983 138.307 74.3983C139.381 74.3983 140.416 74.3983 141.414 74.3983V77.4873C140.373 77.4873 139.315 77.4873 138.241 77.4873C137.178 77.4873 135.918 77.4873 134.46 77.4873H130.877Z" fill="#4267B2"/>
<path d="M147.98 87.6116C147.98 86.3393 147.98 85.1156 147.98 83.9403C147.98 82.7651 147.98 81.4605 147.98 80.0265V72.2635C147.98 70.7971 147.98 69.4655 147.98 68.2687C147.98 67.072 147.98 65.832 147.98 64.549H151.843C151.843 65.832 151.843 67.072 151.843 68.2687C151.843 69.4655 151.843 70.7971 151.843 72.2635V79.4281C151.843 80.8621 151.843 82.1721 151.843 83.3581C151.843 84.5333 151.843 85.7517 151.843 87.0132V84.2638H154.851C156.056 84.2638 157.119 84.2638 158.04 84.2638C158.971 84.2638 159.832 84.2638 160.621 84.2638C161.41 84.2638 162.221 84.2638 163.053 84.2638V87.6116H147.98Z" fill="#4267B2"/>
<path d="M178.377 87.9997C176.339 87.9997 174.564 87.6817 173.052 87.0455C171.55 86.4094 170.301 85.5361 169.304 84.4255C168.317 83.315 167.578 82.0427 167.085 80.6087C166.591 79.1747 166.345 77.6598 166.345 76.0641C166.345 73.8322 166.8 71.816 167.709 70.0154C168.63 68.2041 169.972 66.7701 171.737 65.7134C173.512 64.646 175.687 64.1123 178.262 64.1123C180.213 64.1123 181.928 64.4196 183.407 65.0342C184.898 65.6487 186.142 66.5059 187.139 67.6057C188.147 68.6946 188.903 69.9615 189.407 71.4063C189.911 72.8511 190.163 74.4037 190.163 76.0641C190.163 78.3391 189.703 80.3769 188.783 82.1775C187.862 83.9781 186.52 85.4013 184.755 86.4471C183.002 87.4822 180.876 87.9997 178.377 87.9997ZM178.295 84.7975C179.643 84.7975 180.81 84.5603 181.797 84.0859C182.783 83.6115 183.599 82.9646 184.246 82.1451C184.892 81.3257 185.369 80.3931 185.676 79.3472C185.994 78.3014 186.153 77.207 186.153 76.0641C186.153 74.835 185.983 73.6921 185.643 72.6354C185.303 71.5788 184.799 70.6516 184.131 69.8537C183.473 69.0558 182.657 68.4359 181.681 67.9938C180.706 67.541 179.577 67.3145 178.295 67.3145C176.969 67.3145 175.813 67.5464 174.827 68.01C173.841 68.4736 173.013 69.1151 172.345 69.9346C171.687 70.754 171.194 71.6866 170.865 72.7325C170.537 73.7783 170.372 74.8889 170.372 76.0641C170.372 77.2286 170.531 78.3337 170.849 79.3796C171.167 80.4254 171.649 81.358 172.295 82.1775C172.953 82.9861 173.78 83.6277 174.778 84.1021C175.775 84.5657 176.947 84.7975 178.295 84.7975Z" fill="#4267B2"/>
<path d="M195.766 87.6116C195.766 86.3393 195.766 85.1156 195.766 83.9403C195.766 82.7651 195.766 81.4605 195.766 80.0265V72.2473C195.766 70.8025 195.766 69.4763 195.766 68.2687C195.766 67.0612 195.766 65.8212 195.766 64.549C196.686 64.549 197.886 64.549 199.366 64.549C200.845 64.549 202.544 64.549 204.461 64.549C206.291 64.549 207.809 64.7808 209.015 65.2444C210.22 65.708 211.124 66.4412 211.727 67.4439C212.33 68.4467 212.631 69.7621 212.631 71.3901C212.631 72.8349 212.363 74.118 211.826 75.2393C211.289 76.3606 210.401 77.2393 209.163 77.8755C207.924 78.5116 206.253 78.8297 204.149 78.8297C203.612 78.8297 203.031 78.8297 202.407 78.8297C201.793 78.8297 201.19 78.8297 200.598 78.8297C200.007 78.8297 200.007 78.8297 199.579 78.8297V75.7406H203.344C204.582 75.7406 205.596 75.5951 206.385 75.304C207.174 75.0129 207.754 74.5492 208.127 73.9131C208.511 73.277 208.702 72.4468 208.702 71.4225C208.702 70.5815 208.565 69.913 208.291 69.417C208.017 68.9103 207.656 68.5329 207.207 68.2849C206.768 68.0262 206.281 67.8536 205.744 67.7674C205.218 67.6811 204.702 67.638 204.198 67.638H199.579V65.1312C199.579 66.4035 199.579 67.6434 199.579 68.851C199.579 70.0478 199.579 71.374 199.579 72.8295V80.0265C199.579 81.4605 199.579 82.7651 199.579 83.9403C199.579 85.1156 199.579 86.3393 199.579 87.6116H195.766Z" fill="#4267B2"/>
<path d="M216.744 87.6116C216.897 86.3824 217.05 85.1587 217.204 83.9403C217.357 82.722 217.522 81.4012 217.697 79.978L218.683 72.3282C218.859 70.9157 219.023 69.6003 219.176 68.382C219.33 67.1528 219.494 65.8752 219.67 64.549H223.549C224.185 66.0692 224.787 67.5356 225.357 68.948C225.938 70.3497 226.513 71.7513 227.083 73.153L230.469 81.4012H230.749L234.069 73.153C234.628 71.7513 235.187 70.3551 235.746 68.9642C236.316 67.5733 236.907 66.1016 237.521 64.549H241.384C241.548 65.8644 241.707 67.1366 241.861 68.3658C242.014 69.5841 242.184 70.9049 242.37 72.3282L243.34 80.0426C243.516 81.4335 243.68 82.7274 243.833 83.9242C243.987 85.121 244.14 86.3501 244.294 87.6116H240.611C240.381 85.7247 240.162 83.9295 239.954 82.226C239.746 80.5224 239.549 78.9321 239.362 77.455L238.573 71.0828H238.294L235.664 77.9402C235.017 79.6114 234.371 81.2772 233.724 82.9376C233.088 84.598 232.497 86.156 231.949 87.6116H229.352C228.99 86.6843 228.59 85.6816 228.152 84.6034C227.713 83.5252 227.264 82.4201 226.804 81.288C226.354 80.1559 225.911 79.0507 225.472 77.9725L222.694 71.0828H222.415L221.642 77.4226C221.456 78.9105 221.259 80.5117 221.05 82.226C220.842 83.9295 220.617 85.7247 220.376 87.6116H216.744Z" fill="#4267B2"/>
<path d="M250.119 87.6116C250.119 86.3393 250.119 85.1156 250.119 83.9403C250.119 82.7651 250.119 81.4605 250.119 80.0265V72.2473C250.119 70.8025 250.119 69.4763 250.119 68.2687C250.119 67.0612 250.119 65.8212 250.119 64.549H265.045V67.7512C263.982 67.7512 262.842 67.7512 261.626 67.7512C260.409 67.7512 258.974 67.7512 257.319 67.7512H253.9V65.1312C253.9 66.4035 253.9 67.6434 253.9 68.851C253.9 70.0478 253.9 71.374 253.9 72.8295V79.4443C253.9 80.8675 253.9 82.1721 253.9 83.3581C253.9 84.5333 253.9 83.9888 253.9 85.261V84.4093H257.631C259.012 84.4093 260.322 84.4093 261.56 84.4093C262.798 84.4093 263.987 84.4093 265.127 84.4093V87.6116H250.119ZM253.9 77.4873V74.3983H257.5C258.99 74.3983 260.267 74.3983 261.33 74.3983C262.404 74.3983 263.439 74.3983 264.437 74.3983V77.4873C263.396 77.4873 262.338 77.4873 261.264 77.4873C260.201 77.4873 258.941 77.4873 257.483 77.4873H253.9Z" fill="#4267B2"/>
<path d="M271.258 87.6116C271.258 86.3393 271.258 85.1156 271.258 83.9403C271.258 82.7651 271.258 81.4605 271.258 80.0265V72.2635C271.258 70.7971 271.258 69.4655 271.258 68.2687C271.258 67.072 271.258 65.832 271.258 64.549H274.677C275.97 66.3603 277.203 68.0908 278.376 69.7405C279.559 71.3901 280.726 73.029 281.877 74.6571L286.496 81.1101H286.808V72.2635C286.808 70.7971 286.808 69.4655 286.808 68.2687C286.808 67.072 286.808 65.832 286.808 64.549H290.441C290.441 65.832 290.441 67.072 290.441 68.2687C290.441 69.4655 290.441 70.7971 290.441 72.2635V80.0265C290.441 81.4605 290.441 82.7651 290.441 83.9403C290.441 85.1156 290.441 86.3393 290.441 87.6116H287.071C286.008 86.1129 284.885 84.5441 283.701 82.9053C282.529 81.2556 281.241 79.4496 279.839 77.4873L275.187 70.9696H274.891V80.0265C274.891 81.4605 274.891 82.7651 274.891 83.9403C274.891 85.1156 274.891 86.3393 274.891 87.6116H271.258Z" fill="#080D16"/>
<path d="M303.195 87.6116C303.195 86.3393 303.195 85.1156 303.195 83.9403C303.195 82.7651 303.195 81.4605 303.195 80.0265V72.8295C303.195 71.374 303.195 70.0478 303.195 68.851C303.195 67.6434 303.195 69.169 303.195 67.8968H304.69H301.781C300.488 67.8968 299.343 67.8968 298.345 67.8968C297.348 67.8968 296.4 67.8968 295.502 67.8968V64.549H314.718V67.8968C313.83 67.8968 312.888 67.8968 311.89 67.8968C310.893 67.8968 309.742 67.8968 308.438 67.8968H305.529H307.041C307.041 69.169 307.041 67.6434 307.041 68.851C307.041 70.0478 307.041 71.374 307.041 72.8295V80.0265C307.041 81.4605 307.041 82.7651 307.041 83.9403C307.041 85.1156 307.041 86.3393 307.041 87.6116H303.195Z" fill="#4267B2"/>
</svg>
