<svg width="612" height="132" viewBox="0 0 612 132" fill="none" xmlns="http://www.w3.org/2000/svg">
<path d="M0 63.4917C1.17702 60.1439 2.4144 56.6215 3.71215 52.9243C5.00989 49.2272 6.23218 45.7193 7.37902 42.4006L14.8939 21.0475C16.252 17.1757 17.4743 13.6969 18.5607 10.6111C19.6774 7.49616 20.779 4.36669 21.8655 1.22267H38.2532C39.3699 4.48314 40.4715 7.65627 41.5579 10.7421C42.6444 13.8279 43.8516 17.263 45.1796 21.0475L52.6038 42.4443C53.811 45.8794 55.0484 49.4164 56.316 53.0553C57.5836 56.6942 58.7908 60.173 59.9376 63.4917H46.8545C45.7681 60.0857 44.6514 56.5778 43.5046 52.968C42.3577 49.3582 41.2712 45.9522 40.2451 42.7499L30.4215 11.7464H29.4256L19.5114 42.4006C18.4249 45.7484 17.2932 49.2563 16.1162 52.9243C14.9693 56.5632 13.8376 60.0857 12.7209 63.4917H0ZM14.3506 49.6056L15.6182 40.3482H45.7681L46.8093 49.6056H14.3506Z" fill="#080D16"/>
<path d="M82.1009 63.4917C81.0445 60.3768 79.9128 57.0581 78.7056 53.5357C77.5286 50.0132 76.427 46.7527 75.4009 43.7543L68.7914 24.2351C68.0369 22.0227 67.207 19.6065 66.3016 16.9864C65.4264 14.3373 64.5361 11.6736 63.6307 8.99539C62.7253 6.28804 61.85 3.69713 61.005 1.22267H75.0387C76.3063 5.32737 77.6493 9.72317 79.0677 14.4101C80.4862 19.0679 81.799 23.4346 83.0063 27.5102L90.1137 51.0466H91.1096L98.4434 27.3792C99.7411 23.2163 101.084 18.8787 102.472 14.3664C103.891 9.85417 105.249 5.47292 106.547 1.22267H120.218C119.373 3.72625 118.498 6.31715 117.593 8.99539C116.687 11.6736 115.797 14.3082 114.922 16.8991C114.046 19.4609 113.216 21.8917 112.432 24.1915L105.777 43.7979C104.751 46.8546 103.649 50.1151 102.472 53.5793C101.326 57.0436 100.209 60.3477 99.1224 63.4917H82.1009Z" fill="#080D16"/>
<path d="M133.043 63.4917C133.043 60.1148 133.043 56.8398 133.043 53.6667C133.043 50.4935 133.043 46.9711 133.043 43.0993V22.0081C133.043 18.049 133.043 14.4538 133.043 11.2224C133.043 7.99105 133.043 4.65781 133.043 1.22267C134.914 1.22267 137.117 1.22267 139.653 1.22267C142.188 1.22267 144.904 1.22267 147.801 1.22267C150.729 1.22267 153.732 1.22267 156.81 1.22267C161.941 1.22267 166.271 1.79034 169.802 2.92569C173.334 4.03191 175.989 5.86593 177.77 8.42772C179.581 10.9895 180.486 14.4538 180.486 18.8205C180.486 22.3429 179.762 25.5452 178.313 28.4272C176.895 31.3092 174.571 33.609 171.342 35.3266C168.143 37.015 163.887 37.8738 158.575 37.9029L163.238 33.0122L172.519 45.4573C173.967 47.3786 175.491 49.431 177.091 51.6143C178.721 53.7977 180.305 55.9228 181.844 57.9897C183.414 60.0566 184.787 61.8906 185.964 63.4917H171.477C169.697 60.9882 167.977 58.5865 166.317 56.2867C164.687 53.9578 163.087 51.7017 161.518 49.5183L150.563 34.1039L158.168 40.2172H143.184V30.7415H154.501C157.338 30.7415 159.707 30.4213 161.609 29.7809C163.54 29.1113 164.989 28.0196 165.955 26.5058C166.92 24.9629 167.403 22.8815 167.403 20.2615C167.403 18.2237 167.071 16.5934 166.407 15.3708C165.773 14.1481 164.913 13.2165 163.827 12.5761C162.74 11.9356 161.548 11.5135 160.25 11.3097C158.983 11.106 157.7 11.0041 156.402 11.0041H136.529L145.447 3.10036C145.447 6.71016 145.447 10.1307 145.447 13.3621C145.447 16.5643 145.447 20.0868 145.447 23.9295V43.0993C145.447 46.9711 145.447 50.4935 145.447 53.6667C145.447 56.8398 145.447 60.1148 145.447 63.4917H133.043Z" fill="#080D16"/>
<path d="M193.802 63.4917C194.979 60.1439 196.216 56.6215 197.514 52.9243C198.812 49.2272 200.034 45.7193 201.181 42.4006L208.696 21.0475C210.054 17.1757 211.276 13.6969 212.363 10.6111C213.479 7.49616 214.581 4.36669 215.667 1.22267H232.055C233.172 4.48314 234.273 7.65627 235.36 10.7421C236.446 13.8279 237.654 17.263 238.982 21.0475L246.406 42.4443C247.613 45.8794 248.85 49.4164 250.118 53.0553C251.386 56.6942 252.593 60.173 253.74 63.4917H240.657C239.57 60.0857 238.453 56.5778 237.307 52.968C236.16 49.3582 235.073 45.9522 234.047 42.7499L224.223 11.7464H223.228L213.313 42.4006C212.227 45.7484 211.095 49.2563 209.918 52.9243C208.771 56.5632 207.64 60.0857 206.523 63.4917H193.802ZM208.153 49.6056L209.42 40.3482H239.57L240.611 49.6056H208.153Z" fill="#080D16"/>
<path d="M264.467 63.4917C264.92 60.2021 265.357 56.9271 265.78 53.6667C266.203 50.3771 266.655 46.8255 267.138 43.0119L269.809 22.2265C270.322 18.442 270.79 14.8904 271.212 11.5717C271.635 8.22394 272.073 4.77425 272.525 1.22267H285.337C286.936 5.06537 288.46 8.7625 289.909 12.3141C291.358 15.8365 292.806 19.3445 294.255 22.8378L302.811 43.5796H303.671L312.001 22.8815C313.449 19.359 314.868 15.8657 316.256 12.4014C317.675 8.90806 319.153 5.18181 320.693 1.22267H333.368C333.821 4.74514 334.259 8.18027 334.681 11.5281C335.134 14.8468 335.602 18.4274 336.084 22.2701L338.801 43.1429C339.314 46.9274 339.782 50.4353 340.204 53.6667C340.627 56.8689 341.049 60.1439 341.472 63.4917H329.43C328.826 58.7466 328.253 54.2343 327.709 49.955C327.166 45.6756 326.653 41.6728 326.17 37.9466L324.133 21.8771H323.273L316.799 39.1692C315.23 43.3904 313.646 47.5824 312.046 51.7453C310.477 55.9082 309.013 59.8237 307.655 63.4917H299.189C298.284 61.1337 297.273 58.601 296.156 55.8937C295.07 53.1572 293.953 50.3771 292.806 47.5533C291.659 44.7004 290.528 41.9203 289.411 39.2129L282.439 21.8771H281.579L279.587 37.8592C279.104 41.6146 278.591 45.6465 278.048 49.955C277.505 54.2343 276.947 58.7466 276.373 63.4917H264.467Z" fill="#080D16"/>
<path d="M357.172 63.4917C357.172 60.1148 357.172 56.8398 357.172 53.6667C357.172 50.4935 357.172 46.9711 357.172 43.0993V22.0081C357.172 18.049 357.172 14.4538 357.172 11.2224C357.172 7.99105 357.172 4.65781 357.172 1.22267H399.093V11.3971C396.256 11.3971 393.192 11.3971 389.903 11.3971C386.643 11.3971 382.795 11.3971 378.359 11.3971H362.786L369.577 3.10036C369.577 6.53549 369.577 9.88329 369.577 13.1438C369.577 16.3751 369.577 19.9703 369.577 23.9295V41.1779C369.577 45.0497 369.577 48.5722 369.577 51.7453C369.577 54.9185 369.577 58.208 369.577 61.6141L363.601 53.3173H379.31C383.022 53.3173 386.538 53.3173 389.857 53.3173C393.177 53.3173 396.361 53.3173 399.41 53.3173V63.4917H357.172ZM366.724 36.8549V27.2045H378.766C382.81 27.2045 386.281 27.2045 389.178 27.2045C392.076 27.2045 394.867 27.2045 397.553 27.2045V36.8549C394.717 36.8549 391.849 36.8549 388.952 36.8549C386.055 36.8549 382.645 36.8549 378.721 36.8549H366.724Z" fill="#080D16"/>
<path d="M414.711 131.504C414.711 128.127 414.729 56.8398 414.729 53.6667C414.729 50.4935 414.729 46.9711 414.729 43.0993V22.0518C414.729 18.0636 414.729 14.4538 414.729 11.2224C414.729 7.99105 414.729 4.65781 414.729 1.22267H425.866C429.185 5.79315 432.324 10.1453 435.282 14.2791C438.27 18.4129 441.242 22.5321 444.2 26.6368L455.834 42.7499H456.785V22.0518C456.785 18.0636 456.785 14.4538 456.785 11.2224C456.785 7.99105 456.785 4.65781 456.785 1.22267H468.736C468.736 4.65781 468.736 7.99105 468.736 11.2224C468.736 14.4538 468.736 18.0636 468.736 22.0518V43.0993C468.736 46.9711 468.736 50.4935 468.736 53.6667C468.736 56.8398 468.736 60.1148 468.736 63.4917H457.736C455.02 59.7073 452.168 55.7627 449.18 51.658C446.192 47.5242 442.917 42.9974 439.356 38.0776L427.586 21.7898H426.635V43.0993C426.635 46.9711 426.635 50.4935 426.635 53.6667C426.635 56.8398 427.293 128.127 427.293 131.504H414.711Z" fill="#080D16"/>
<path d="M524.369 63.4917C522.075 60.6388 519.918 57.9606 517.896 55.457C515.904 52.9534 513.942 50.5081 512.01 48.121L502.232 36.0252H497.977V26.3312H502.096L510.743 16.3751C512.765 14.0171 514.772 11.6736 516.764 9.34473C518.786 7.01582 521.11 4.30847 523.735 1.22267H538.493C535.536 4.51225 532.638 7.7436 529.802 10.9167C526.995 14.0899 524.158 17.2776 521.291 20.4798L510.516 32.5755L510.29 27.2045L522.287 42.0076C524.128 44.2783 526.104 46.7236 528.217 49.3436C530.36 51.9636 532.442 54.5109 534.464 56.9854C536.486 59.4598 538.252 61.6286 539.761 63.4917H524.369ZM486.433 63.4917C486.433 60.1148 486.433 56.8398 486.433 53.6667C486.433 50.4935 486.433 46.9711 486.433 43.0993V22.0518C486.433 18.0636 486.433 14.4538 486.433 11.2224C486.433 7.99105 486.433 4.65781 486.433 1.22267H499.108C499.108 4.65781 499.108 7.99105 499.108 11.2224C499.108 14.4538 499.108 18.0636 499.108 22.0518V43.0993C499.108 46.9711 499.108 50.4935 499.108 53.6667C499.108 56.8398 499.108 60.1148 499.108 63.4917H486.433Z" fill="#080D16"/>
<path d="M579.224 64.5834C573.52 64.5834 568.556 63.7246 564.331 62.007C560.136 60.2895 556.665 57.9315 553.918 54.933C551.202 51.9345 549.165 48.4994 547.807 44.6276C546.479 40.7558 545.815 36.6657 545.815 32.3572C545.815 26.3312 547.068 20.8728 549.573 15.9821C552.078 11.0623 555.775 7.17593 560.664 4.32303C565.583 1.44101 571.649 0 578.862 0C584.355 0 589.169 0.829671 593.303 2.48902C597.438 4.14836 600.894 6.46271 603.67 9.43206C606.447 12.4014 608.529 15.8365 609.918 19.7375C611.306 23.6384 612 27.8304 612 32.3135C612 38.4851 610.732 44.0017 608.197 48.8633C605.662 53.7249 601.95 57.5676 597.061 60.3914C592.172 63.1861 586.226 64.5834 579.224 64.5834ZM578.998 54.409C582.378 54.409 585.306 53.8268 587.78 52.6623C590.255 51.4688 592.307 49.8385 593.937 47.7716C595.597 45.6756 596.819 43.3031 597.604 40.6539C598.419 38.0048 598.826 35.2247 598.826 32.3135C598.826 29.1986 598.389 26.3021 597.514 23.6238C596.638 20.9456 595.356 18.6021 593.666 16.5934C592.006 14.5556 589.938 12.9836 587.464 11.8774C585.019 10.7421 582.197 10.1744 578.998 10.1744C575.708 10.1744 572.811 10.7566 570.306 11.9211C567.801 13.0855 565.704 14.7012 564.014 16.7681C562.354 18.835 561.101 21.2076 560.256 23.8858C559.411 26.5349 558.989 29.3442 558.989 32.3135C558.989 35.2829 559.396 38.0921 560.211 40.7413C561.026 43.3904 562.263 45.7484 563.923 47.8153C565.583 49.8822 567.665 51.4979 570.17 52.6623C572.675 53.8268 575.618 54.409 578.998 54.409Z" fill="#080D16"/>
<path d="M86.5693 131.418C86.5693 129.509 86.5693 127.674 86.5693 125.911C86.5693 124.148 86.5693 122.191 86.5693 120.04V108.396C86.5693 106.196 86.5693 104.199 86.5693 102.403C86.5693 100.608 86.5693 98.7484 86.5693 96.8238C88.028 96.8238 89.4784 96.8238 90.9203 96.8238C92.379 96.8238 93.8377 96.8238 95.2964 96.8238C96.7551 96.8238 98.2473 96.8238 99.7731 96.8238C102.523 96.8238 104.962 97.212 107.092 97.9883C109.238 98.7484 111.049 99.8724 112.524 101.36C114 102.832 115.115 104.627 115.869 106.746C116.64 108.865 117.026 111.282 117.026 113.999C117.026 116.442 116.682 118.722 115.995 120.841C115.324 122.943 114.251 124.787 112.776 126.372C111.317 127.957 109.389 129.194 106.991 130.083C104.594 130.973 101.676 131.418 98.239 131.418C96.7467 131.418 95.3551 131.418 94.0641 131.418C92.773 131.418 91.5155 131.418 90.2915 131.418C89.0843 131.418 87.8436 131.418 86.5693 131.418ZM92.4796 126.76H98.2641C101.366 126.76 103.839 126.202 105.683 125.086C107.528 123.97 108.852 122.442 109.657 120.501C110.462 118.56 110.864 116.361 110.864 113.902C110.864 112.026 110.63 110.328 110.16 108.808C109.691 107.272 108.961 105.962 107.972 104.878C106.983 103.778 105.725 102.937 104.2 102.355C102.674 101.773 100.855 101.482 98.742 101.482H92.4796C92.4796 102.759 92.4796 104.045 92.4796 105.339C92.4796 106.617 92.4796 108.032 92.4796 109.584V118.803C92.4796 120.323 92.4796 121.722 92.4796 123C92.4796 124.261 92.4796 125.515 92.4796 126.76Z" fill="#4972C7"/>
<path d="M125.544 131.418C125.544 129.509 125.544 127.674 125.544 125.911C125.544 124.148 125.544 122.191 125.544 120.04V108.371C125.544 106.204 125.544 104.215 125.544 102.403C125.544 100.592 125.544 98.7322 125.544 96.8238H148.381V101.627C146.754 101.627 145.011 101.627 143.149 101.627C141.288 101.627 139.092 101.627 136.56 101.627H131.329V97.6972C131.329 99.6056 131.329 101.465 131.329 103.277C131.329 105.072 131.329 107.061 131.329 109.245V119.167C131.329 121.302 131.329 123.258 131.329 125.038C131.329 126.8 131.329 128.636 131.329 130.544V126.614H137.038C139.151 126.614 141.154 126.614 143.049 126.614C144.944 126.614 146.763 126.614 148.506 126.614V131.418H125.544ZM131.329 116.231V111.598H136.837C139.117 111.598 141.07 111.598 142.697 111.598C144.34 111.598 145.924 111.598 147.45 111.598V116.231C145.857 116.231 144.239 116.231 142.596 116.231C140.97 116.231 139.042 116.231 136.812 116.231H131.329Z" fill="#4972C7"/>
<path d="M166.752 131.418C166.148 129.687 165.494 127.844 164.79 125.887C164.102 123.93 163.465 122.118 162.879 120.452L159.031 109.609C158.595 108.363 158.117 107.021 157.597 105.581C157.094 104.126 156.574 102.646 156.038 101.142C155.518 99.6379 155.015 98.1985 154.529 96.8238H161.068C161.856 99.2012 162.686 101.74 163.558 104.441C164.446 107.126 165.276 109.649 166.047 112.01L170.499 125.571H171.002L175.529 111.937C176.334 109.528 177.164 107.021 178.019 104.417C178.891 101.813 179.737 99.2821 180.559 96.8238H186.897C186.411 98.2147 185.908 99.6541 185.388 101.142C184.868 102.614 184.348 104.077 183.829 105.533C183.326 106.972 182.856 108.315 182.42 109.56L178.572 120.477C177.985 122.159 177.348 123.97 176.661 125.911C175.99 127.835 175.345 129.671 174.724 131.418H166.752Z" fill="#4972C7"/>
<path d="M194.458 131.418C194.458 129.509 194.458 127.674 194.458 125.911C194.458 124.148 194.458 122.191 194.458 120.04V108.371C194.458 106.204 194.458 104.215 194.458 102.403C194.458 100.592 194.458 98.7322 194.458 96.8238H217.294V101.627C215.667 101.627 213.924 101.627 212.063 101.627C210.201 101.627 208.005 101.627 205.473 101.627H200.242V97.6972C200.242 99.6056 200.242 101.465 200.242 103.277C200.242 105.072 200.242 107.061 200.242 109.245V119.167C200.242 121.302 200.242 123.258 200.242 125.038C200.242 126.8 200.242 128.636 200.242 130.544V126.614H205.951C208.064 126.614 210.067 126.614 211.962 126.614C213.857 126.614 215.676 126.614 217.42 126.614V131.418H194.458ZM200.242 116.231V111.598H205.75C208.03 111.598 209.984 111.598 211.61 111.598C213.253 111.598 214.837 111.598 216.363 111.598V116.231C214.77 116.231 213.152 116.231 211.509 116.231C209.883 116.231 207.955 116.231 205.725 116.231H200.242Z" fill="#4972C7"/>
<path d="M226.41 131.418C226.41 129.509 226.41 127.674 226.41 125.911C226.41 124.148 226.41 122.191 226.41 120.04V108.396C226.41 106.196 226.41 104.199 226.41 102.403C226.41 100.608 226.41 98.7484 226.41 96.8238H232.32C232.32 98.7484 232.32 100.608 232.32 102.403C232.32 104.199 232.32 106.196 232.32 108.396V119.142C232.32 121.293 232.32 123.258 232.32 125.038C232.32 126.8 232.32 128.628 232.32 130.52V126.396H236.922C238.767 126.396 240.393 126.396 241.801 126.396C243.227 126.396 244.543 126.396 245.75 126.396C246.957 126.396 248.198 126.396 249.472 126.396V131.418H226.41Z" fill="#4972C7"/>
<path d="M272.918 132C269.799 132 267.083 131.523 264.769 130.569C262.472 129.614 260.561 128.304 259.035 126.639C257.526 124.973 256.394 123.064 255.64 120.913C254.885 118.762 254.508 116.49 254.508 114.097C254.508 110.749 255.204 107.724 256.595 105.024C258.004 102.306 260.058 100.155 262.757 98.5705C265.473 96.9694 268.802 96.1688 272.742 96.1688C275.726 96.1688 278.35 96.6298 280.614 97.5516C282.894 98.4735 284.797 99.7592 286.323 101.409C287.865 103.042 289.022 104.943 289.794 107.11C290.565 109.277 290.95 111.606 290.95 114.097C290.95 117.509 290.246 120.566 288.838 123.267C287.429 125.967 285.376 128.102 282.676 129.671C279.993 131.224 276.741 132 272.918 132ZM272.792 127.197C274.854 127.197 276.64 126.841 278.149 126.129C279.658 125.418 280.907 124.447 281.896 123.218C282.886 121.989 283.615 120.59 284.084 119.021C284.571 117.452 284.814 115.811 284.814 114.097C284.814 112.253 284.554 110.538 284.034 108.954C283.514 107.369 282.743 105.978 281.72 104.781C280.714 103.584 279.465 102.654 277.973 101.991C276.481 101.312 274.754 100.972 272.792 100.972C270.763 100.972 268.994 101.32 267.485 102.015C265.976 102.711 264.711 103.673 263.688 104.902C262.682 106.131 261.927 107.53 261.424 109.099C260.921 110.668 260.67 112.334 260.67 114.097C260.67 115.843 260.913 117.501 261.399 119.07C261.885 120.638 262.623 122.037 263.612 123.267C264.618 124.48 265.884 125.442 267.41 126.153C268.936 126.849 270.73 127.197 272.792 127.197Z" fill="#4972C7"/>
<path d="M299.522 131.418C299.522 129.509 299.522 127.674 299.522 125.911C299.522 124.148 299.522 122.191 299.522 120.04V108.371C299.522 106.204 299.522 104.215 299.522 102.403C299.522 100.592 299.522 98.7322 299.522 96.8238C300.93 96.8238 302.766 96.8238 305.03 96.8238C307.293 96.8238 309.892 96.8238 312.826 96.8238C315.626 96.8238 317.948 97.1715 319.793 97.867C321.637 98.5624 323.02 99.6622 323.943 101.166C324.865 102.67 325.326 104.643 325.326 107.086C325.326 109.253 324.915 111.177 324.093 112.859C323.272 114.541 321.914 115.859 320.019 116.814C318.125 117.768 315.568 118.245 312.348 118.245C311.527 118.245 310.638 118.245 309.683 118.245C308.744 118.245 307.821 118.245 306.916 118.245C306.011 118.245 306.011 118.245 305.357 118.245V113.611H311.116C313.011 113.611 314.562 113.393 315.769 112.956C316.976 112.52 317.865 111.824 318.435 110.87C319.022 109.916 319.315 108.671 319.315 107.134C319.315 105.873 319.105 104.87 318.686 104.126C318.267 103.366 317.714 102.8 317.026 102.428C316.356 102.04 315.61 101.781 314.788 101.651C313.983 101.522 313.195 101.457 312.424 101.457H305.357V97.6972C305.357 99.6056 305.357 101.465 305.357 103.277C305.357 105.072 305.357 107.061 305.357 109.245V120.04C305.357 122.191 305.357 124.148 305.357 125.911C305.357 127.674 305.357 129.509 305.357 131.418H299.522Z" fill="#4972C7"/>
<path d="M331.618 131.418C331.853 129.574 332.088 127.738 332.322 125.911C332.557 124.083 332.808 122.102 333.077 119.967L334.586 108.493C334.854 106.374 335.106 104.401 335.34 102.573C335.575 100.73 335.826 98.8131 336.095 96.8238H342.03C343.003 99.1042 343.925 101.304 344.797 103.422C345.685 105.525 346.566 107.627 347.437 109.73L352.618 122.102H353.046L358.126 109.73C358.981 107.627 359.836 105.533 360.692 103.447C361.563 101.36 362.469 99.1527 363.408 96.8238H369.318C369.569 98.7969 369.813 100.705 370.047 102.549C370.282 104.377 370.542 106.358 370.827 108.493L372.311 120.064C372.579 122.151 372.831 124.091 373.065 125.887C373.3 127.682 373.535 129.526 373.77 131.418H368.136C367.784 128.587 367.448 125.895 367.13 123.339C366.811 120.784 366.51 118.399 366.225 116.183L365.017 106.625H364.59L360.566 116.911C359.577 119.417 358.587 121.916 357.598 124.407C356.626 126.897 355.72 129.234 354.882 131.418H350.908C350.355 130.027 349.743 128.523 349.072 126.905C348.402 125.288 347.714 123.63 347.01 121.932C346.322 120.234 345.643 118.576 344.973 116.959L340.722 106.625H340.295L339.113 116.134C338.828 118.366 338.526 120.768 338.207 123.339C337.889 125.895 337.545 128.587 337.176 131.418H331.618Z" fill="#4972C7"/>
<path d="M382.683 131.418C382.683 129.509 382.683 127.674 382.683 125.911C382.683 124.148 382.683 122.191 382.683 120.04V108.371C382.683 106.204 382.683 104.215 382.683 102.403C382.683 100.592 382.683 98.7322 382.683 96.8238H405.519V101.627C403.893 101.627 402.149 101.627 400.288 101.627C398.427 101.627 396.23 101.627 393.698 101.627H388.467V97.6972C388.467 99.6056 388.467 101.465 388.467 103.277C388.467 105.072 388.467 107.061 388.467 109.245V119.167C388.467 121.302 388.467 123.258 388.467 125.038C388.467 126.8 388.467 125.984 388.467 127.892V126.614H394.176C396.289 126.614 398.292 126.614 400.187 126.614C402.082 126.614 403.901 126.614 405.645 126.614V131.418H382.683ZM388.467 116.231V111.598H393.975C396.255 111.598 398.209 111.598 399.835 111.598C401.478 111.598 403.063 111.598 404.588 111.598V116.231C402.996 116.231 401.378 116.231 399.734 116.231C398.108 116.231 396.18 116.231 393.95 116.231H388.467Z" fill="#4972C7"/>
<path d="M415.025 131.418C415.025 129.509 415.025 127.674 415.025 125.911C415.025 124.148 415.025 122.191 415.025 120.04V108.396C415.025 106.196 415.025 104.199 415.025 102.403C415.025 100.608 415.025 98.7484 415.025 96.8238H420.256C422.235 99.5409 424.121 102.137 425.915 104.611C427.726 107.086 429.511 109.544 431.272 111.986L438.339 121.665H438.817V108.396C438.817 106.196 438.817 104.199 438.817 102.403C438.817 100.608 438.817 98.7484 438.817 96.8238H444.375C444.375 98.7484 444.375 100.608 444.375 102.403C444.375 104.199 444.375 106.196 444.375 108.396V120.04C444.375 122.191 444.375 124.148 444.375 125.911C444.375 127.674 444.375 129.509 444.375 131.418H439.219C437.593 129.17 435.874 126.817 434.064 124.358C432.27 121.884 430.3 119.175 428.153 116.231L421.036 106.455H420.583V120.04C420.583 122.191 420.583 124.148 420.583 125.911C420.583 127.674 420.583 129.509 420.583 131.418H415.025Z" fill="#080D16"/>
<path d="M463.888 131.418C463.888 129.509 463.888 127.674 463.888 125.911C463.888 124.148 463.888 122.191 463.888 120.04V109.245C463.888 107.061 463.888 105.072 463.888 103.277C463.888 101.465 463.888 103.754 463.888 101.846H466.177H461.725C459.747 101.846 457.995 101.846 456.469 101.846C454.943 101.846 453.493 101.846 452.118 101.846V96.8238H481.518V101.846C480.16 101.846 478.718 101.846 477.192 101.846C475.667 101.846 473.906 101.846 471.911 101.846H467.459H469.773C469.773 103.754 469.773 101.465 469.773 103.277C469.773 105.072 469.773 107.061 469.773 109.245V120.04C469.773 122.191 469.773 124.148 469.773 125.911C469.773 127.674 469.773 129.509 469.773 131.418H463.888Z" fill="#4972C7"/>
</svg>
